<?xml version="1.0" encoding="UTF-8" standalone="no"?>
<!-- Created with Inkscape (http://www.inkscape.org/) -->

<svg
   width="500mm"
   height="500mm"
   viewBox="0 0 500 500"
   version="1.1"
   id="svg1"
   sodipodi:docname="2-part-tree-template.svg"
   inkscape:version="1.3 (0e150ed, 2023-07-21)"
   xmlns:inkscape="http://www.inkscape.org/namespaces/inkscape"
   xmlns:sodipodi="http://sodipodi.sourceforge.net/DTD/sodipodi-0.dtd"
   xmlns="http://www.w3.org/2000/svg"
   xmlns:svg="http://www.w3.org/2000/svg">
  <sodipodi:namedview
     id="namedview1"
     pagecolor="#ffffff"
     bordercolor="#000000"
     borderopacity="0.25"
     inkscape:showpageshadow="2"
     inkscape:pageopacity="0.0"
     inkscape:pagecheckerboard="0"
     inkscape:deskcolor="#d1d1d1"
     inkscape:document-units="mm"
     inkscape:zoom="0.1922995"
     inkscape:cx="855.43644"
     inkscape:cy="1045.2445"
     inkscape:window-width="1408"
     inkscape:window-height="769"
     inkscape:window-x="0"
     inkscape:window-y="25"
     inkscape:window-maximized="0"
     inkscape:current-layer="layer1" />
  <defs
     id="defs1">
    <clipPath
       clipPathUnits="userSpaceOnUse"
       id="clipPath288">
      <path
         d="M 0,792 H 612 V 0 H 0 Z"
         transform="translate(-356.41601,-313.15181)"
         id="path288" />
    </clipPath>
  </defs>
  <g
     inkscape:label="Layer 1"
     inkscape:groupmode="layer"
     id="layer1"
     transform="translate(27.909891,74.749184)">
    <path
       id="path287"
       d="m 0,0 c -0.937,-0.126 -1.528,-0.183 -2.11,-0.288 -2.768,-0.498 -5.522,-1.093 -8.304,-1.481 -1.375,-0.192 -2.801,-0.022 -4.204,0.007 -1.027,0.022 -2.061,0.018 -3.079,0.135 -1.699,0.195 -3.402,0.409 -5.079,0.737 -4.126,0.806 -7.937,2.343 -11.256,4.998 -0.891,0.712 -1.867,1.319 -2.973,2.093 0.457,0.445 0.69,0.83 1.026,0.973 2.527,1.077 5.128,1.994 7.597,3.187 2.022,0.976 4.033,1.999 5.868,3.363 1.959,1.458 4.169,2.577 6.155,4.002 2.425,1.741 4.732,3.645 7.088,5.482 1.058,0.824 2.179,1.583 3.154,2.497 2.682,2.516 5.393,5.013 7.922,7.678 2.521,2.657 4.887,5.467 7.225,8.29 2.026,2.448 4.031,4.928 5.84,7.536 2.5,3.605 4.903,7.285 7.169,11.04 2.311,3.833 4.514,7.741 6.562,11.72 1.625,3.157 2.959,6.465 4.396,9.718 1.112,2.518 2.233,5.034 3.259,7.587 0.935,2.326 1.781,4.69 2.608,7.058 0.884,2.534 2.513116,7.85164 2.867292,8.96717 0.354176,1.11553 -0.288828,0.89433 5.374767,0.82554 5.663594,-0.0688 5.218427,0.0714 5.592486,-0.76915 C 53.072603,104.51498 54.459,99.148 55.15,97.317 c 0.904,-2.393 1.975,-4.722 2.895,-7.109 0.768,-1.993 1.278,-4.096 2.155,-6.035 2.402,-5.306 4.878,-10.582 7.447,-15.81 1.291,-2.63 2.775,-5.173 4.305,-7.675 1.338,-2.186 2.862,-4.257 4.301,-6.381 0.893,-1.316 1.747,-2.66 2.675,-3.951 2.204,-3.064 4.269,-6.252 6.71,-9.117 3.378,-3.965 7.003,-7.725 10.616,-11.482 1.65,-1.715 3.5,-3.241 5.303,-4.802 1.847,-1.598 3.729,-3.157 5.628,-4.694 3.054,-2.474 6.252,-4.724 9.792,-6.483 2.086,-1.036 4.049,-2.315 6.114,-3.397 2.044,-1.072 3.939,-2.45 6.283,-2.932 0.624,-0.129 1.137,-0.794 1.701,-1.212 -0.435,-0.484 -0.793,-1.082 -1.318,-1.43 -1.824,-1.213 -3.728,-2.291 -5.652,-3.351 -2.812,-1.551 -5.831,-2.214 -8.882,-2.786 -1.891,-0.354 -3.865,-0.296 -5.803,-0.36 -1.396,-0.047 -2.814,0.157 -4.19,-0.014 -2.059,-0.256 -3.976,0.48 -5.973,0.621 -1.389,0.098 -2.749,0.573 -4.125,0.863 -0.219,0.046 -0.455,0.006 -0.689,0.006 0,-0.228 -0.049,-0.38 0.007,-0.465 1.269,-1.948 2.481,-3.939 3.846,-5.818 1.47,-2.025 3.118,-3.92 4.632,-5.915 3.005,-3.959 6.384,-7.58 10.007,-10.964 2.003,-1.871 4.124,-3.635 6.316,-5.279 2.093,-1.57 4.434,-2.811 6.509,-4.401 2.358,-1.807 5.05,-2.967 7.626,-4.344 3.13,-1.674 6.381,-3.089 9.877,-3.853 0.333,-0.073 0.636,-0.287 1.236,-0.567 -0.812,-0.756 -1.383,-1.49 -2.125,-1.945 -5.098,-3.133 -10.447,-5.653 -16.468,-6.439 -5.408,-0.706 -10.715,-0.243 -15.922,1.375 -0.405,0.126 -0.82,0.217 -1.462,0.385 0.138,-0.51 0.147,-0.932 0.348,-1.223 1.357,-1.961 2.797,-3.865 4.127,-5.843 1.672,-2.487 3.232,-5.048 4.903,-7.534 0.814,-1.21 1.736,-2.353 2.67,-3.475 2.078,-2.496 4.334,-4.856 6.265,-7.459 3.57,-4.816 7.93,-8.84 12.341,-12.822 2.313,-2.088 4.717,-4.077 7.102,-6.083 3.388,-2.849 7.213,-5.063 10.855,-7.546 3.015,-2.056 6.45,-3.23 9.471,-5.214 0.848,-0.556 1.954,-0.709 2.922,-1.097 0.888,-0.355 1.749,-0.777 2.727,-1.217 -0.627,-1.449 -1.729,-2.17 -2.661,-2.97 -1.763,-1.514 -3.802,-2.61 -5.84,-3.752 -2.968,-1.662 -6.13,-2.331 -9.371,-2.929 -0.661,-0.122 -1.296,-0.423 -1.958,-0.495 -1.015,-0.11 -2.043,-0.099 -3.066,-0.128 -0.857,-0.025 -1.717,-0.082 -2.571,-0.041 -2.691,0.128 -5.379,0.3 -8.07,0.441 -0.345,0.019 -0.694,-0.042 -1.206,-0.077 0.221,-0.515 0.28,-1.011 0.56,-1.246 1.736,-1.46 2.511,-3.61 3.904,-5.314 2.387,-2.918 4.67,-5.922 7.094,-8.807 2.198,-2.616 4.502,-5.142 6.804,-7.666 1.402,-1.537 2.841,-3.047 4.352,-4.473 1.722,-1.626 3.553,-3.135 5.317,-4.717 0.543,-0.487 0.978,-1.097 1.535,-1.565 2.474,-2.077 4.823,-4.355 7.508,-6.119 2.949,-1.938 5.557,-4.356 8.755,-5.957 2.12,-1.062 3.975,-2.645 6.056,-3.801 2.77,-1.538 5.632,-2.913 8.481,-4.305 1.361,-0.666 2.781,-1.211 4.466,-1.936 -2.847,-2.578 -5.808,-4.556 -9.154,-6.046 -3.398,-1.512 -6.71,-3.181 -10.305,-4.25 -3.543,-1.052 -7.183,-1.61 -10.807,-1.776 -3.696,-0.169 -7.422,0.34 -11.123,0.89 -3.641,0.54 -7.06,1.753 -10.477,3.054 -0.08,-0.116 -0.161,-0.233 -0.241,-0.349 0.394,-0.661 0.761,-1.339 1.186,-1.979 1.046,-1.571 2.143,-3.107 3.174,-4.688 2.891,-4.43 6.306,-8.349 10.243,-11.931 3.465,-3.152 7.207,-5.876 11.056,-8.449 2.984,-1.994 6.261,-3.565 9.472,-5.199 2.18,-1.109 4.422,-2.137 6.723,-2.955 3.109,-1.105 6.288,-2.023 9.465,-2.925 1.987,-0.565 4.012,-1.02 6.043,-1.399 1.624,-0.303 3.283,-0.411 4.924,-0.618 0.358,-0.046 0.709,-0.15 1.366,-0.293 -0.417,-0.634 -0.672,-1.162 -1.052,-1.575 -1.827,-1.982 -3.577,-4.054 -5.563,-5.865 -2.663,-2.427 -5.498,-4.669 -8.295,-6.946 -3.315,-2.696 -7.24,-4.28 -11.093,-5.995 -3.209,-1.428 -6.624,-2.091 -10.04,-2.713 -1.185,-0.216 -2.457,0.087 -3.661,-0.069 -3.342,-0.433 -6.655,0.18 -9.787,0.939 -3.812,0.924 -7.651,2.181 -10.943,4.553 -0.641,0.461 -1.374,0.791 -2.023,1.242 -1.985,1.38 -3.949,2.789 -6.055,4.282 -0.24,-0.529 -0.431,-0.887 -0.569,-1.264 -1.528,-4.173 -3.693,-7.971 -6.302,-11.579 -2.064,-2.856 -4.487,-5.375 -7.098,-7.628 -2.142,-1.849 -4.804,-3.154 -7.362,-4.449 -3.614,-1.83 -7.462,-3.078 -11.463,-3.78 -0.771,-0.136 -0.97,-0.695 -1.226,-1.224 -1.041,-2.151 -2.044,-4.321 -3.068,-6.48 -2.072,-4.366 -4.155,-8.726 -6.218,-13.095 -0.442,-0.935 -0.789,-1.914 -1.238,-2.845 -1.592,-3.307 -3.218,-6.598 -4.811,-9.905 -0.372,-0.77 -0.835,-1.182 -1.776,-1.317 -1.783,-0.255 -3.498,-0.275 -5.294,0.011 -1.664,0.264 -3.4,0.099 -5.104,0.077 -2.917,-0.037 -5.833,-0.16 -8.75,-0.154 -3.221,0.007 -6.442,0.162 -9.663,0.166 -1.582,10e-4 -2.95,-0.2785 -4.748,-0.279 -1.798,-5e-4 -4.026006,0.17879 -6.04,0.232 -0.976006,0.0258 -2.444,-0.0625 -2.931,-0.098 -0.487,-0.0355 -10.937,-0.3135 -12.431,-0.108 -1.494,0.2055 -5.96,0.204 -8.95,0.029 -2.602,-0.152 -5.219,-0.059 -7.83,-0.054 -2.367,0.004 -4.734,0.023 -7.102,0.059 -3.896,0.058 -7.792,0.152 -11.688,0.19 -0.766,0.008 -1.288,0.242 -1.634,0.928 -0.633,1.252 -1.267,2.505 -1.944,3.733 -1.418,2.57 -2.908,5.1 -4.285,7.691 -1.118,2.102 -2.06,4.297 -3.177,6.399 -1.691,3.186 -3.472,6.324 -5.204,9.488 -0.82,1.5 -1.612,3.016 -2.424,4.521 -0.717,1.33 -1.63,2.175 -3.354,2.032 -0.905,-0.074 -1.848,0.524 -2.796,0.709 -3.584,0.701 -6.877,2.214 -10.094,3.82 -3.963,1.978 -7.263,4.877 -10.214,8.188 -3.756,4.214 -6.623,8.941 -8.536,14.252 -0.246,0.685 -0.548,1.35 -0.818,2.006 -0.185,0 -0.343,0.05 -0.412,-0.007 -1.626,-1.364 -3.205,-2.789 -4.871,-4.101 -2.234,-1.759 -4.805,-2.914 -7.456,-3.891 -1.153,-0.425 -2.318,-0.816 -3.467,-1.249 -4.289,-1.615 -8.782,-2.093 -13.305,-2.237 -1.504,-0.048 -3.027,0.409 -4.536,0.663 -5.252,0.883 -10.14,2.737 -14.822,5.279 -4.572,2.481 -8.422,5.837 -12.259,9.272 -2.691,2.409 -5.046,5.102 -7.711,7.998 0.798,0.271 1.378,0.606 1.979,0.651 2.879,0.215 5.718,0.609 8.468,1.524 0.233,0.077 0.468,0.171 0.709,0.195 5.003,0.486 9.515,2.533 14.076,4.422 2.145,0.888 4.342,1.689 6.385,2.774 2.422,1.286 4.722,2.804 7.038,4.281 1.543,0.985 3.03,2.059 4.523,3.121 0.741,0.526 1.455,1.095 2.153,1.678 1.079,0.902 2.134,1.833 3.2,2.75 3.488,3.002 6.681,6.254 9.191,10.157 1.747,2.716 3.68,5.312 5.521,7.968 0.234,0.337 0.414,0.712 0.65,1.124 -0.948,0.527 -1.655,-0.002 -2.331,-0.294 -4.507,-1.952 -9.324,-2.65 -14.116,-3.179 -5.764,-0.635 -11.448,0.144 -17.02,1.901 -2.938,0.926 -5.758,2.045 -8.457,3.504 -2.155,1.165 -4.343,2.275 -6.449,3.523 -1.233,0.729 -2.335,1.679 -3.779,2.738 0.846,0.502 1.362,0.887 1.936,1.138 3.924,1.713 7.884,3.351 11.559,5.58 1.199,0.728 2.445,1.388 3.597,2.183 2.964,2.044 5.887,4.145 8.826,6.225 0.1,0.071 0.191,0.155 0.288,0.23 2.672,2.053 5.406,4.03 7.994,6.184 1.919,1.597 3.645,3.426 5.463,5.146 1.191,1.128 2.401,2.236 3.587,3.369 1.369,1.309 2.82,2.551 4.061,3.974 2.778,3.185 5.485,6.434 8.152,9.712 2.585,3.177 5.106,6.407 7.607,9.652 0.733,0.951 1.302,2.028 2.015,3.156 -0.805,-0.04 -1.542,-0.002 -2.25,-0.125 -4.419,-0.771 -8.85,-0.695 -13.289,-0.267 -3.418,0.329 -6.67,1.195 -9.811,2.647 -2.119,0.98 -4.205,1.952 -5.994,3.47 -1.021,0.866 -2.04,1.737 -3.029,2.639 -0.75,0.683 -0.558,1.398 0.453,1.804 1.41,0.567 2.865,1.038 4.229,1.697 2.81,1.359 5.663,2.665 8.331,4.27 3.087,1.857 6.017,3.98 8.972,6.051 1.886,1.321 3.717,2.727 5.525,4.154 0.767,0.605 1.387,1.393 2.12,2.046 2.422,2.157 4.995,4.162 7.25,6.479 1.34,1.377 2.821,2.633 3.959,4.267 1.206,1.731 2.989,3.047 4.36,4.678 2.125,2.528 4.109,5.175 6.163,7.763 0.723,0.911 1.55,1.749 2.202,2.707 2.302,3.378 4.549,6.793 6.815,10.196 0.936,1.405 1.866,2.814 2.998,4.523 -2.392,-0.55 -4.377,-1.153 -6.407,-1.433 -2.353,-0.325 -4.745,-0.472 -7.122,-0.506 -3.646,-0.052 -7.22,0.631 -10.666,1.751 -2.206,0.716 -4.325,1.752 -6.394,2.816 -1.504,0.774 -2.876,1.809 -4.278,2.771 -0.378,0.26 -0.649,0.677 -1.209,1.281 17.933,5.858 31.905,16.772 43.054,31.457 C -4.376,-7.161 -1.844,-4.004 0,0"
       style="display:inline;fill:none;fill-opacity:1;fill-rule:nonzero;stroke:#231f20;stroke-width:0.222255;stroke-linecap:butt;stroke-linejoin:miter;stroke-miterlimit:10;stroke-dasharray:none;stroke-opacity:1"
       transform="matrix(1.0991121,0,0,-1.0991121,170.28597,69.473427)"
       clip-path="url(#clipPath288)"
       sodipodi:nodetypes="ccccccccccccccccccccccczccccccccccccccccccccccccccccccccccscccccccscccccccscccccccsccscccccccccccccccccccscccccccscccccccccsccccccccczszzccccccccccccccccccsccccsccccccccccccccccsccccccccccccsccccccccscccccssccccccccccc" />
    <rect
       style="fill:none;stroke:#000000;stroke-width:0.25;stroke-dasharray:none"
       id="rect1"
       width="3.375"
       height="222.94688"
       x="220.36667"
       y="63.777374" />
  </g>
</svg>
