<?xml version="1.0" encoding="UTF-8" standalone="no"?>
<!-- Created with Inkscape (http://www.inkscape.org/) -->

<svg
   width="141.56216mm"
   height="100.00025mm"
   viewBox="0 0 141.56216 100.00025"
   version="1.1"
   id="svg1"
   sodipodi:docname="2-part-tree-100mm.svg"
   inkscape:version="1.3 (0e150ed, 2023-07-21)"
   xmlns:inkscape="http://www.inkscape.org/namespaces/inkscape"
   xmlns:sodipodi="http://sodipodi.sourceforge.net/DTD/sodipodi-0.dtd"
   xmlns="http://www.w3.org/2000/svg"
   xmlns:svg="http://www.w3.org/2000/svg">
  <sodipodi:namedview
     id="namedview1"
     pagecolor="#ffffff"
     bordercolor="#000000"
     borderopacity="0.25"
     inkscape:showpageshadow="2"
     inkscape:pageopacity="0.0"
     inkscape:pagecheckerboard="0"
     inkscape:deskcolor="#d1d1d1"
     inkscape:document-units="mm"
     inkscape:zoom="0.70524838"
     inkscape:cx="207.72823"
     inkscape:cy="146.04784"
     inkscape:window-width="1408"
     inkscape:window-height="769"
     inkscape:window-x="0"
     inkscape:window-y="25"
     inkscape:window-maximized="0"
     inkscape:current-layer="layer1" />
  <defs
     id="defs1">
    <clipPath
       clipPathUnits="userSpaceOnUse"
       id="clipPath288">
      <path
         d="M 0,792 H 612 V 0 H 0 Z"
         transform="translate(-356.41601,-313.15181)"
         id="path288" />
    </clipPath>
    <clipPath
       clipPathUnits="userSpaceOnUse"
       id="clipPath288-8">
      <path
         d="M 0,792 H 612 V 0 H 0 Z"
         transform="translate(-356.41601,-313.15181)"
         id="path288-1" />
    </clipPath>
    <clipPath
       clipPathUnits="userSpaceOnUse"
       id="clipPath288-2">
      <path
         d="M 0,792 H 612 V 0 H 0 Z"
         transform="translate(-356.41601,-313.15181)"
         id="path288-6" />
    </clipPath>
  </defs>
  <g
     inkscape:label="Layer 1"
     inkscape:groupmode="layer"
     id="layer1"
     transform="translate(-153.54029,-289.99975)">
    <path
       id="path287"
       clip-path="url(#clipPath288)"
       style="display:inline;fill:none;fill-opacity:1;fill-rule:nonzero;stroke:#231f20;stroke-width:1.01268;stroke-linecap:butt;stroke-linejoin:miter;stroke-miterlimit:10;stroke-dasharray:none;stroke-opacity:1"
       d="m 42.427413,106.15684 c -0.59147,-0.0755 -0.518594,-0.30007 -0.695682,-0.85784 -0.354176,-1.11553 -1.984381,-6.432434 -2.86838,-8.966431 -0.826999,-2.367998 -1.67224,-4.731793 -2.607239,-7.057791 -1.025999,-2.552997 -2.14705,-5.070437 -3.259048,-7.588435 -1.436999,-3.252997 -2.770539,-6.560311 -4.395537,-9.717308 -2.047998,-3.978996 -4.250971,-7.88734 -6.561969,-11.720336 -2.265998,-3.754996 -4.669909,-7.433681 -7.169907,-11.038677 -1.808998,-2.607998 -3.81313,-5.088003 -5.8391279,-7.536 C 6.6925254,38.851025 4.3252075,36.039951 1.80421,33.382954 -0.72478744,30.717956 -3.4357872,28.220327 -6.1177845,25.70433 c -0.974999,-0.913999 -2.0945037,-1.671921 -3.1525026,-2.49592 -2.3559979,-1.836998 -4.6634329,-3.741636 -7.0884299,-5.482634 -1.985998,-1.424999 -4.19559,-2.543863 -6.154588,-4.001862 -1.834998,-1.363998 -3.846378,-2.386151 -5.868376,-3.36215 -2.468998,-1.1929991 -5.071181,-2.1110671 -7.598179,-3.188066 -0.336,-0.1429999 -0.568765,-0.5281994 -1.025765,-0.973199 1.105999,-0.7739992 2.081838,-1.3812175 2.972838,-2.0932168 3.318996,-2.6549973 7.130255,-4.19213269 11.256251,-4.99813188 1.676999,-0.32799972 3.379686,-0.54119172 5.078684,-0.73619152 1.017999,-0.1169998 2.052384,-0.1122343 3.079383,-0.1342343 1.402999,-0.029 2.830427,-0.2003895 4.205426,-0.00839 2.781997,0.3879997 5.5342195,0.98277315 8.3022167,1.48077265 0.5819994,0.1049999 1.17302585,0.16344293 2.11002491494,0.28944280511 C -1.8447995,-4.0034457 -4.3768445,-7.1612767 -6.7988421,-10.352274 -17.947831,-25.037259 -31.918725,-35.951259 -49.851707,-41.809253 c 0.559999,-0.603999 0.831609,-1.021519 1.209608,-1.281518 1.401999,-0.962 2.772458,-1.996682 4.276457,-2.770681 2.068998,-1.063999 4.18884,-2.098727 6.394838,-2.814727 3.445996,-1.119998 7.01903,-1.803338 10.665027,-1.751338 2.376997,0.034 4.768858,0.180476 7.121856,0.505476 2.029998,0.28 4.015375,0.882533 6.407373,1.432532 -1.131999,-1.708998 -2.061908,-3.117021 -2.997907,-4.522019 -2.265998,-3.402997 -4.512756,-6.817522 -6.814754,-10.195518 -0.651999,-0.957999 -1.478947,-1.79676 -2.201946,-2.707759 -2.053998,-2.587997 -4.037947,-5.234523 -6.162945,-7.76252 -1.370998,-1.630998 -3.154023,-2.948327 -4.360021,-4.679325 -1.137999,-1.633999 -2.61891,-2.889137 -3.958908,-4.266136 -2.254998,-2.316997 -4.827296,-4.321906 -7.249294,-6.478904 -0.732999,-0.653 -1.353471,-1.442075 -2.120471,-2.047074 -1.807998,-1.426998 -3.63976,-2.831876 -5.525758,-4.152875 -2.954997,-2.070998 -5.883743,-4.194034 -8.97074,-6.051031 -2.667997,-1.605 -5.521467,-2.91133 -8.331464,-4.27033 -1.363999,-0.659 -2.818408,-1.12981 -4.228407,-1.69681 -1.010999,-0.406 -1.203341,-1.12077 -0.453342,-1.80377 0.988999,-0.902 2.008245,-1.77255 3.029244,-2.63855 1.788998,-1.51799 3.874726,-2.49121 5.993724,-3.47121 3.140997,-1.452 6.392575,-2.31794 9.810572,-2.64694 4.438995,-0.42799 8.869983,-0.50462 13.288978,0.26638 0.708,0.123 1.444998,0.0858 2.249997,0.12584 -0.712999,-1.128 -1.283014,-2.2056 -2.016014,-3.1566 -2.500997,-3.245 -5.021538,-6.47529 -7.606535,-9.65229 -2.666997,-3.278 -5.373802,-6.52602 -8.151799,-9.71102 -1.240999,-1.423 -2.692277,-2.66559 -4.061276,-3.97459 -1.185999,-1.133 -2.396044,-2.24045 -3.587042,-3.36845 -1.817999,-1.71999 -3.544087,-3.54795 -5.463085,-5.14495 -2.587997,-2.15399 -5.321027,-4.13227 -7.993025,-6.18526 -0.097,-0.075 -0.1883,-0.15972 -0.2883,-0.23072 -2.938997,-2.08 -5.862593,-4.17902 -8.82659,-6.22302 -1.151998,-0.795 -2.3964,-1.45541 -3.595399,-2.1834 -3.674996,-2.229 -7.635175,-3.86822 -11.559175,-5.58122 -0.574,-0.251 -1.09063,-0.63479 -1.93663,-1.13679 1.444,-1.059 2.54625,-2.01022 3.77925,-2.73922 2.10599,-1.248 4.294153,-2.35656 6.449151,-3.52156 2.698997,-1.459 5.518815,-2.57877 8.456812,-3.50477 5.571995,-1.757 11.256177,-2.53526 17.020172,-1.90026 4.791995,0.529 9.60928,1.22558 14.116275,3.17758 0.676,0.292 1.381385,0.82064 2.329384,0.29364 -0.236,-0.412 -0.415721,-0.78512 -0.64972,-1.12212 -1.840999,-2.65599 -3.772493,-5.25207 -5.519491,-7.96806 -2.509998,-3.903 -5.704192,-7.15577 -9.192188,-10.15777 -1.065999,-0.917 -2.121554,-1.8477 -3.200553,-2.7497 -0.697999,-0.583 -1.410808,-1.15193 -2.151807,-1.67793 -1.492999,-1.062 -2.979976,-2.13595 -4.522975,-3.12095 -2.315997,-1.477 -4.616293,-2.99482 -7.038291,-4.28082 -2.042998,-1.085 -4.239394,-1.88688 -6.384392,-2.77487 -4.560995,-1.889 -9.073587,-3.93535 -14.076577,-4.42135 -0.241,-0.024 -0.47522,-0.11806 -0.70822,-0.19506 -2.75,-0.915 -5.59035,-1.30982 -8.46935,-1.52482 -0.601,-0.045 -1.18041,-0.37919 -1.97841,-0.65019 2.665,-2.896 5.02,-5.58844 7.71099,-7.99743 3.837,-3.435 7.68704,-6.79166 12.25904,-9.27266 4.681995,-2.542 9.570408,-4.39619 14.822403,-5.27919 1.508998,-0.254 3.03151,-0.71078 4.535509,-0.66278 4.522995,0.144 9.016696,0.62084 13.305691,2.23584 1.148999,0.433 2.312874,0.82506 3.465873,1.25006 2.650997,0.977 5.22212,2.1317 7.456118,3.8907 1.665998,1.312 3.245861,2.73644 4.871859,4.10044 0.069,0.057 0.22656,0.008 0.41156,0.008 0.269999,-0.656 0.570851,-1.32223 0.816851,-2.00722 1.912998,-5.311 4.780203,-10.03792 8.5362,-14.25192 2.950997,-3.31099 6.250778,-6.21029 10.213774,-8.18829 3.216996,-1.606 6.510697,-3.11839 10.094693,-3.81939 0.947999,-0.185 1.890262,-0.78292 2.795261,-0.70892 1.723998,0.143 2.638149,-0.7024 3.355148,-2.0324 0.812,-1.50499 1.603396,-3.01992 2.423395,-4.51992 1.731999,-3.16399 3.5130338,-6.30269 5.2040321,-9.48869 1.1169989,-2.102 2.0595733,-4.2972 3.1775722,-6.3992 1.3769986,-2.591 2.8668144,-5.12121 4.284813,-7.69121 0.67699932,-1.228 1.311984,-2.48139 1.9449834,-3.73339 0.3459996,-0.686 0.8677032,-0.91906 1.6337024,-0.92706 3.8959961,-0.038 7.7906169,-0.13286 11.6866129,-0.19086 2.367998,-0.036 4.736057,-0.0547 7.103055,-0.0587 2.610997,-0.005 5.228075,-0.0975 7.830072,0.0545 2.989997,0.175 7.45585,0.17614 8.949849,-0.0294 0.141778,-0.0195 0.964471,0.005 1.251391,-0.006 v 203.885186 h 13.14065 V -298.41918 c 0.37712,0.0104 0.646578,0.04 0.969358,0.0315 2.013992,-0.0532 4.241687,-0.23122 6.039685,-0.23072 1.797998,5e-4 3.166602,0.27996 4.748601,0.27896 3.220996,-0.004 6.441246,-0.1587 9.662242,-0.1657 2.916998,-0.006 5.834384,0.11611 8.751381,0.15311 1.703998,0.022 3.439755,0.1864 5.103753,-0.0776 1.795999,-0.286 3.510867,-0.26549 5.293865,-0.0105 0.940999,0.135 1.403764,0.54718 1.775763,1.31718 1.592999,3.30699 3.219277,6.59698 4.811274,9.90397 0.449,0.931 0.79477,1.91119 1.23677,2.84619 2.063,4.369 4.14735,8.72815 6.21935,13.09414 1.024,2.159 2.02585,4.33001 3.06685,6.481 0.256,0.529 0.45532,1.08679 1.22632,1.22279 4.00099,0.702 7.84908,1.95164 11.46307,3.78164 2.558,1.295 5.22011,2.59961 7.36211,4.44861 2.611,2.253 5.03488,4.77229 7.09888,7.62828 2.60899,3.608 4.77283,7.40472 6.30082,11.57772 0.138,0.377 0.33034,0.73574 0.57034,1.26473 2.106,-1.49299 4.06931,-2.90291 6.05431,-4.28291 0.649,-0.451 1.38128,-0.78067 2.02228,-1.24167 3.29199,-2.372 7.13088,-3.62948 10.94288,-4.55348 3.132,-0.759 6.44559,-1.37054 9.78759,-0.93754 1.204,0.156 2.47516,-0.14679 3.66016,0.0692 3.416,0.622 6.83138,1.28396 10.04038,2.71196 3.85299,1.715 7.7783,3.2984 11.0933,5.9944 2.79699,2.277 5.63295,4.51963 8.29595,6.94663 1.986,1.81099 3.73636,3.88236 5.56336,5.86436 0.38,0.413 0.63383,0.94116 1.05083,1.57516 -0.657,0.143 -1.00829,0.24763 -1.36629,0.29363 -1.641,0.207 -3.30009,0.31574 -4.92409,0.61874 -2.031,0.379 -4.05477,0.83397 -6.04177,1.39897 -3.177,0.902 -6.35687,1.8188 -9.46587,2.92379 -2.30099,0.818 -4.54283,1.84626 -6.72283,2.95526 -3.21099,1.634 -6.48813,3.20548 -9.47213,5.19948 -3.849,2.573 -7.5907,5.29638 -11.05569,8.44838 -3.937,3.58199 -7.35203,7.50217 -10.24303,11.93217 -1.031,1.581 -2.12739,3.11672 -3.17339,4.68771 -0.425,0.64 -0.79263,1.31686 -1.18663,1.97786 0.08,0.116 0.16025,0.23427 0.24025,0.35027 3.417,-1.301 6.83601,-2.51383 10.47701,-3.05383 3.70099,-0.55 7.42864,-1.0604 11.12463,-0.8914 3.624,0.166 7.2641,0.72451 10.80709,1.77651 3.595,1.069 6.90561,2.73736 10.30361,4.24935 3.346,1.49 6.30758,3.46884 9.15458,6.04684 -1.685,0.725 -3.10557,1.26991 -4.46657,1.93591 -2.84899,1.392 -5.70979,2.76799 -8.47979,4.30599 -2.081,1.156 -3.9364,2.73851 -6.0564,3.80051 -3.19799,1.601 -5.80656,4.01865 -8.75556,5.95665 -2.68499,1.764 -5.03434,4.04115 -7.50834,6.11815 -0.557,0.468 -0.99252,1.07976 -1.53552,1.56676 -1.76399,1.582 -3.59484,3.09108 -5.31684,4.71708 -1.511,1.426 -2.94967,2.93469 -4.35167,4.47168 -2.30199,2.524 -4.60631,5.05005 -6.8043,7.66604 -2.424,2.885 -4.70561,5.88904 -7.09261,8.80704 -1.393,1.70399 -2.16859,3.85484 -3.90459,5.31484 -0.28,0.235 -0.33889,0.73086 -0.55989,1.24586 0.512,0.035 0.86043,0.0945 1.20543,0.0755 2.691,-0.141 5.37933,-0.31246 8.07032,-0.44046 0.854,-0.041 1.71473,0.017 2.57173,0.0419 1.02299,0.029 2.04976,0.0179 3.06475,0.12794 0.662,0.072 1.29861,0.37299 1.95961,0.49499 3.241,0.598 6.40177,1.26599 9.36977,2.92799 2.03799,1.14199 4.07822,2.23827 5.84121,3.75226 0.932,0.8 2.03247,1.52094 2.65947,2.96994 -0.978,0.44 -1.83832,0.8615 -2.72632,1.2165 -0.968,0.388 -2.0747,0.54094 -2.9227,1.09694 -3.02099,1.984 -6.45504,3.15817 -9.47004,5.21417 -3.642,2.482997 -7.46714,4.69749 -10.85514,7.546487 -2.38499,2.005998 -4.79005,3.994495 -7.10305,6.082493 -4.411,3.981996 -8.77052,8.00758 -12.34051,12.823575 -1.931,2.602997 -4.18732,4.962398 -6.26531,7.458396 -0.934,1.121999 -1.85592,2.265412 -2.66992,3.475411 -1.671,2.485997 -3.2312,5.046905 -4.90319,7.533902 -1.33,1.977998 -2.76904,3.882391 -4.12604,5.843389 -0.201,0.291 -0.21089,0.712792 -0.34889,1.222791 0.642,-0.168 1.0574,-0.259924 1.4624,-0.385924 5.20699,-1.617998 10.51329,-2.079804 15.92128,-1.373804 6.021,0.785999 11.37065,3.306057 16.46864,6.439053 0.742,0.455 1.31265,1.188302 2.12465,1.944301 -0.6,0.28 -0.90168,0.493301 -1.23468,0.566301 -3.49599,0.763999 -6.74742,2.178947 -9.87742,3.852945 -2.576,1.376999 -5.26734,2.536742 -7.62534,4.34374 -2.075,1.589998 -4.41674,2.832468 -6.50974,4.402467 -2.192,1.643998 -4.31245,3.408187 -6.31545,5.279185 -3.623,3.383996 -7.00195,7.004174 -10.00695,10.96317 -1.514,1.994998 -3.163699,3.8897031 -4.633697,5.9147011 -1.364999,1.8789981 -2.575007,3.8702217 -3.844006,5.81821979 -0.056,0.0849999 -0.0084,0.23762561 -0.0084,0.46562538 0.233999,0 0.470414,0.0397077 0.689414,-0.006292 1.375998,-0.28999971 2.734951,-0.76613369 4.123949,-0.86413367 1.997,-0.1409998 3.91593,-0.8768335 5.97493,-0.6208338 1.376,0.1709998 2.79271,-0.032318 4.18871,0.014682 1.938,0.064 3.91261,0.00676 5.80361,0.3607548 3.051,0.57199945 6.06891,1.2343642 8.88091,2.7853626 1.924,1.059999 3.8292,2.138665 5.65319,3.3516638 0.525,0.3479996 0.88325,0.9443378 1.31825,1.4283373 -0.564,0.4179996 -1.07865,1.083304 -1.70265,1.2123039 -2.34399,0.4819995 -4.23802,1.8601825 -6.28202,2.9321808 -2.065,1.081999 -4.0289,2.361808 -6.11489,3.397807 -3.54,1.758998 -6.73778,4.009102 -9.79177,6.4831 -1.899,1.536998 -3.78113,3.096008 -5.62813,4.694007 -1.803002,1.560998 -3.652226,3.085977 -5.302225,4.800975 -3.612996,3.756996 -7.23898,7.518332 -10.616977,11.483329 -2.440997,2.864997 -4.50421,6.051353 -6.708207,9.11535 -0.928,1.290999 -1.783181,2.635525 -2.676181,3.951524 -1.438998,2.123998 -2.963527,4.194328 -4.301526,6.380326 -1.529998,2.501998 -3.012616,5.046529 -4.303615,7.676527 -2.568997,5.227994 -5.045763,10.504294 -7.447761,15.810288 -0.876999,1.938998 -1.385898,4.041256 -2.153897,6.034254 -0.919999,2.386997 -1.99154,4.71513 -2.895539,7.108128 -0.690999,1.830998 -2.078585,7.198795 -2.452643,8.039375 -0.374058,0.84055 0.07307,0.70095 -5.590521,0.76975 -2.831795,0.0344 -4.08819,0.10701 -4.679659,0.0315 z"
       transform="matrix(0.2473582,0,0,-0.24638193,183.34818,316.28884)" />
    <path
       id="path287-4"
       clip-path="url(#clipPath288-2)"
       style="display:inline;fill:none;fill-opacity:1;fill-rule:nonzero;stroke:#231f20;stroke-width:1.01268;stroke-linecap:butt;stroke-linejoin:miter;stroke-miterlimit:10;stroke-dasharray:none;stroke-opacity:1"
       d="M 53.674006,102.15802 V -97.75887 H 40.535444 v 199.31912 c -0.621615,-1.985363 -1.15591,-3.751452 -1.671306,-5.228843 -0.827,-2.367998 -1.67224,-4.731793 -2.607239,-7.057791 C 35.2309,86.720619 34.109849,84.205276 32.997851,81.687279 31.560852,78.434282 30.225223,75.126967 28.600224,71.969971 26.552226,67.990975 24.349253,64.082631 22.038256,60.249635 19.772258,56.494638 17.370436,52.813856 14.870438,49.20886 13.06144,46.600862 11.055219,44.120857 9.0292209,41.67286 6.6912232,38.849863 4.3259944,36.040886 1.804997,33.383889 -0.7240005,30.718892 -3.4350003,28.221263 -6.1169976,25.705265 -7.0919966,24.791266 -8.2135904,24.031247 -9.2715893,23.207248 -11.627587,21.37025 -13.935022,19.46771 -16.36002,17.726711 c -1.985998,-1.424998 -4.195589,-2.543863 -6.154587,-4.001861 -1.834998,-1.363999 -3.846378,-2.388249 -5.868376,-3.364248 -2.468998,-1.1929991 -5.069093,-2.1089696 -7.59609,-3.1859685 -0.336,-0.1429999 -0.568765,-0.5281995 -1.025765,-0.973199 1.105999,-0.7739993 2.081838,-1.3812175 2.972837,-2.0932168 3.318997,-2.6549974 7.130256,-4.19213272 11.256252,-4.99813192 1.676999,-0.32799968 3.379686,-0.54119168 5.078684,-0.73619148 1.017999,-0.1169999 2.052384,-0.1143318 3.079383,-0.1363318 1.402998,-0.029 2.828338,-0.198292 4.203337,-0.00629 2.7819969,0.3879996 5.5363084,0.98277311 8.3043056,1.48077262 0.5819994,0.10499989 1.17302589,0.16134551 2.110024950433,0.28734538889 C -1.8440126,-4.0046077 -4.3760576,-7.1603412 -6.7980551,-10.351338 -17.947044,-25.036323 -31.920027,-35.950323 -49.853009,-41.808318 c 0.559999,-0.603999 0.831609,-1.021518 1.209608,-1.281518 1.401999,-0.961999 2.774547,-1.996682 4.278546,-2.770681 2.068998,-1.063999 4.18884,-2.100824 6.394838,-2.816824 3.445996,-1.119998 7.01903,-1.803338 10.665027,-1.751338 2.376997,0.034 4.768858,0.182574 7.121856,0.507573 2.029998,0.28 4.015375,0.882533 6.407373,1.432532 -1.131999,-1.708998 -2.061908,-3.119118 -2.997907,-4.524116 -2.265998,-3.402997 -4.512756,-6.817522 -6.814754,-10.195518 -0.651999,-0.957999 -1.478947,-1.79676 -2.201947,-2.707759 -2.053997,-2.587997 -4.037946,-5.234523 -6.162944,-7.76252 -1.370998,-1.630998 -3.154023,-2.94623 -4.360021,-4.677228 -1.137999,-1.633998 -2.61891,-2.891234 -3.958909,-4.268233 -2.254997,-2.316997 -4.829385,-4.321906 -7.251382,-6.478904 -0.732999,-0.652999 -1.351382,-1.439977 -2.118382,-2.044976 -1.807998,-1.426999 -3.63976,-2.833974 -5.525758,-4.154973 -2.954997,-2.070998 -5.885832,-4.194034 -8.972829,-6.051029 -2.667997,-1.605 -5.519378,-2.90924 -8.329375,-4.26824 -1.363999,-0.659 -2.820497,-1.1319 -4.230496,-1.6989 -1.010999,-0.406 -1.203341,-1.12077 -0.453342,-1.80377 0.988999,-0.902 2.008245,-1.77255 3.029244,-2.63855 1.788998,-1.518 3.874726,-2.48912 5.993724,-3.46912 3.140997,-1.45199 6.394664,-2.31793 9.812661,-2.64693 4.438995,-0.428 8.869983,-0.50463 13.288978,0.26637 0.708,0.123 1.444998,0.0859 2.249997,0.12585 -0.712999,-1.128 -1.283014,-2.20561 -2.016014,-3.15661 -2.500997,-3.24499 -5.021538,-6.47529 -7.606535,-9.65229 -2.666997,-3.27799 -5.373802,-6.52602 -8.151799,-9.71101 -1.240999,-1.423 -2.692277,-2.6656 -4.061276,-3.9746 -1.185999,-1.133 -2.396044,-2.24044 -3.587042,-3.36844 -1.817999,-1.72 -3.544087,-3.55005 -5.463085,-5.14705 -2.587997,-2.154 -5.321028,-4.13017 -7.993025,-6.18317 -0.097,-0.075 -0.1883,-0.15971 -0.2883,-0.23071 -2.938997,-2.08 -5.862593,-4.18112 -8.82659,-6.22512 -1.151999,-0.795 -2.398489,-1.45541 -3.597488,-2.18341 -3.674996,-2.22899 -7.635183,-3.86611 -11.559173,-5.57911 -0.574,-0.251 -1.08854,-0.6369 -1.93454,-1.1389 1.444,-1.05899 2.54415,-2.00812 3.77715,-2.73712 2.106,-1.248 4.294161,-2.35865 6.449158,-3.52365 2.698998,-1.459 5.518816,-2.57668 8.456813,-3.50268 5.571995,-1.757 11.256177,-2.53735 17.020171,-1.90235 4.791996,0.529 9.609281,1.22768 14.116276,3.17968 0.675999,0.292 1.383474,0.82063 2.331473,0.29363 -0.236,-0.412 -0.415721,-0.78721 -0.64972,-1.12421 -1.840999,-2.656 -3.774582,-5.25207 -5.52158,-7.96806 -2.509998,-3.903 -5.702103,-7.15367 -9.190099,-10.15567 -1.065999,-0.917 -2.121554,-1.84981 -3.200553,-2.75181 -0.697999,-0.583 -1.412897,-1.15193 -2.153896,-1.67793 -1.492999,-1.06199 -2.979976,-2.13594 -4.522975,-3.12094 -2.315997,-1.477 -4.614204,-2.99482 -7.036202,-4.28082 -2.042998,-1.085 -4.241483,-1.88478 -6.386481,-2.77278 -4.560995,-1.889 -9.071495,-3.93744 -14.074495,-4.42344 -0.241,-0.024 -0.4773,-0.11806 -0.7103,-0.19506 -2.75,-0.915 -5.58826,-1.30772 -8.46726,-1.52272 -0.601,-0.045 -1.18041,-0.3813 -1.97841,-0.6523 2.665,-2.89599 5.01999,-5.58843 7.71099,-7.99743 3.837,-3.43499 7.68704,-6.79166 12.259037,-9.27265 4.681995,-2.542 9.568319,-4.39619 14.820313,-5.27919 1.508999,-0.254 3.0336,-0.71078 4.537598,-0.66278 4.522996,0.144 9.014607,0.62294 13.303603,2.23794 1.148999,0.433 2.314963,0.82296 3.467962,1.24796 2.650997,0.977 5.22212,2.1338 7.456118,3.89279 1.665998,1.312 3.243772,2.73645 4.86977,4.10044 0.069,0.057 0.228649,0.006 0.413648,0.006 0.27,-0.656 0.570852,-1.32013 0.816852,-2.00513 1.912998,-5.31099 4.780203,-10.03792 8.5362,-14.25191 2.950997,-3.311 6.250778,-6.2103 10.213774,-8.1883 3.216996,-1.60599 6.510697,-3.11838 10.094693,-3.81938 0.947999,-0.185 1.890262,-0.78293 2.795261,-0.70893 1.723998,0.143 2.638149,-0.70239 3.355148,-2.03239 0.812,-1.505 1.603396,-3.02202 2.423395,-4.52202 1.731999,-3.164 3.5130338,-6.30059 5.2040321,-9.48659 1.1169989,-2.102 2.0595733,-4.29721 3.1775722,-6.3992 1.3769986,-2.591 2.8668144,-5.12122 4.28481293,-7.69121 0.67699933,-1.228 1.30989487,-2.4814 1.94289427,-3.7334 0.3459996,-0.686 0.8677032,-0.92115 1.6337024,-0.92915 3.8959961,-0.038 7.7927061,-0.13077 11.6887021,-0.18877 2.367998,-0.036 4.733968,-0.0547 7.100965,-0.0587 2.610998,-0.005 5.228076,-0.0975 7.830073,0.0545 2.989997,0.175 7.45585,0.17614 8.949848,-0.0294 1.493999,-0.2055 11.945435,0.0715 12.432434,0.10696 0.487,0.0355 1.95505,0.12438 2.931055,0.0986 2.013992,-0.0532 4.241687,-0.23331 6.039685,-0.23281 1.797998,5e-4 3.166602,0.27995 4.748601,0.27895 3.220996,-0.004 6.441246,-0.15869 9.662242,-0.16569 2.916997,-0.006 5.832295,0.11821 8.749292,0.15521 1.703998,0.022 3.439755,0.18639 5.103753,-0.0776 1.795998,-0.286 3.512956,-0.26548 5.295954,-0.0105 0.940999,0.135 1.403764,0.54717 1.775763,1.31717 1.592999,3.307 3.219277,6.59698 4.811277,9.90398 0.449,0.931 0.79477,1.90909 1.23677,2.84409 2.06299,4.36899 4.14526,8.73024 6.21726,13.09624 1.024,2.15899 2.02793,4.3279 3.06893,6.4789 0.256,0.529 0.45533,1.08889 1.22633,1.22489 4.00099,0.702 7.84907,1.94954 11.46307,3.77954 2.558,1.29499 5.22011,2.59961 7.36211,4.44861 2.611,2.25299 5.03279,4.77228 7.09678,7.62828 2.609,3.608 4.77492,7.40682 6.30292,11.57981 0.138,0.377 0.32825,0.73574 0.56825,1.26474 2.10599,-1.493 4.0714,-2.90292 6.05639,-4.28291 0.649,-0.451 1.38129,-0.78067 2.02228,-1.24167 3.292,-2.372 7.13089,-3.62948 10.94289,-4.55348 3.13199,-0.759 6.44559,-1.37264 9.78759,-0.93964 1.204,0.156 2.47516,-0.14679 3.66016,0.0692 3.416,0.622 6.83138,1.28605 10.04038,2.71405 3.85299,1.715 7.7783,3.29841 11.09329,5.9944 2.797,2.277 5.63087,4.51963 8.29386,6.94663 1.986,1.811 3.73637,3.88237 5.56337,5.86436 0.38,0.413 0.63592,0.94116 1.05292,1.57516 -0.657,0.143 -1.00829,0.24764 -1.36629,0.29364 -1.641,0.207 -3.30009,0.31364 -4.92409,0.61664 -2.031,0.379 -4.05687,0.83397 -6.04386,1.39897 -3.177,0.902 -6.35478,1.82089 -9.46378,2.92589 -2.301,0.818 -4.54283,1.84625 -6.72283,2.95525 -3.211,1.634 -6.48814,3.20549 -9.47213,5.19949 -3.849,2.57299 -7.5907,5.29637 -11.0557,8.44837 -3.93699,3.582 -7.35202,7.50008 -10.24302,11.93008 -1.031,1.581 -2.12948,3.11671 -3.17548,4.68771 -0.425,0.64 -0.79054,1.31896 -1.18454,1.97996 0.08,0.116 0.16025,0.23217 0.24025,0.34817 3.417,-1.301 6.83601,-2.51383 10.477,-3.05383 3.701,-0.55 7.42656,-1.0583 11.12255,-0.8893 3.624,0.166 7.26409,0.7245 10.80709,1.7765 3.595,1.069 6.9077,2.73736 10.3057,4.24936 3.34599,1.49 6.30758,3.46884 9.15458,6.04684 -1.685,0.725 -3.10557,1.26991 -4.46657,1.93591 -2.849,1.392 -5.71188,2.76589 -8.48188,4.30389 -2.081,1.156 -3.9364,2.73851 -6.0564,3.80051 -3.198,1.601 -5.80447,4.02075 -8.75347,5.95874 -2.685,1.764 -5.03435,4.04115 -7.50835,6.11815 -0.55699,0.468 -0.99251,1.07767 -1.53551,1.56467 -1.764,1.582 -3.59485,3.09108 -5.31684,4.71708 -1.511,1.426 -2.94967,2.93678 -4.35167,4.47378 -2.302,2.524 -4.60631,5.05004 -6.80431,7.66604 -2.42399,2.885 -4.7077,5.88903 -7.09469,8.80703 -1.393,1.704 -2.16651,3.85275 -3.90251,5.31274 -0.28,0.235 -0.33888,0.73087 -0.55988,1.24587 0.512,0.035 0.86043,0.0966 1.20543,0.0776 2.69099,-0.141 5.37932,-0.31246 8.07032,-0.44046 0.854,-0.041 1.71263,0.0149 2.56963,0.0399 1.023,0.029 2.05185,0.0179 3.06685,0.12794 0.662,0.072 1.29652,0.37299 1.95752,0.49499 3.241,0.598 6.40386,1.26808 9.37185,2.93008 2.038,1.142 4.07613,2.23827 5.83913,3.75227 0.932,0.8 2.03456,1.52094 2.66156,2.96993 -0.978,0.44 -1.83832,0.8615 -2.72632,1.2165 -0.968,0.388 -2.0747,0.54095 -2.9227,1.09695 -3.021,1.984 -6.45713,3.15817 -9.47213,5.21417 -3.642,2.482993 -7.46505,4.697485 -10.85305,7.546482 -2.385,2.005998 -4.79006,3.994496 -7.10305,6.082494 -4.411,3.981996 -8.77052,8.005482 -12.34052,12.821477 -1.93099,2.602997 -4.18731,4.962398 -6.26531,7.458396 -0.934,1.121999 -1.85591,2.265412 -2.66991,3.475411 -1.671,2.485997 -3.2312,5.046905 -4.9032,7.533902 -1.33,1.977998 -2.76904,3.882391 -4.12604,5.843389 -0.201,0.291 -0.21088,0.712792 -0.34888,1.222791 0.642,-0.168 1.05739,-0.257826 1.46239,-0.383826 5.207,-1.617999 10.51329,-2.081902 15.92129,-1.375902 6.02099,0.785999 11.37064,3.306057 16.46864,6.439053 0.742,0.455 1.31265,1.188302 2.12465,1.944301 -0.6,0.28 -0.90377,0.495399 -1.23677,0.568399 -3.496,0.763999 -6.74534,2.178946 -9.87533,3.852945 -2.576,1.376998 -5.26943,2.536741 -7.62743,4.343739 -2.075,1.589999 -4.41465,2.830371 -6.50765,4.40037 -2.192,1.643998 -4.31454,3.408187 -6.31754,5.279185 -3.623,3.383996 -7.00195,7.006272 -10.00695,10.965268 -1.514,1.994998 -3.161612,3.8897025 -4.63161,5.9147005 -1.364999,1.8789981 -2.577096,3.8702218 -3.846095,5.81821986 -0.056,0.0849999 -0.0063,0.23552819 -0.0063,0.46352796 0.234,0 0.470415,0.0397077 0.689415,-0.006292 1.375998,-0.28999971 2.734951,-0.76403627 4.123949,-0.86203622 1.997001,-0.1409998 3.913841,-0.8768336 5.972831,-0.6208338 1.376,0.1709998 2.79481,-0.032318 4.19081,0.014682 1.93799,0.064 3.91052,0.00466 5.80152,0.3586573 3.051,0.5719995 6.071,1.23436425 8.883,2.7853627 1.92399,1.0599989 3.8271,2.138665 5.6511,3.3516637 0.525,0.3479997 0.88325,0.9464353 1.31825,1.4304348 -0.564,0.4179995 -1.07656,1.083304 -1.70056,1.2123039 -2.344,0.4819995 -4.23803,1.8601825 -6.28202,2.9321813 -2.065,1.081999 -4.0289,2.35971 -6.1149,3.395709 -3.53999,1.758998 -6.73777,4.009102 -9.79177,6.4831 -1.89899,1.536998 -3.78112,3.096008 -5.62812,4.694007 -1.803003,1.560998 -3.652227,3.088074 -5.302226,4.803072 -3.612996,3.756997 -7.23898,7.516236 -10.616977,11.481232 -2.440997,2.864997 -4.506299,6.053451 -6.710297,9.117448 -0.927999,1.290999 -1.781092,2.635525 -2.674091,3.951523 -1.438998,2.123998 -2.963527,4.194329 -4.301526,6.380327 -1.529998,2.501997 -3.014705,5.044431 -4.305704,7.674429 -2.568997,5.227994 -5.043674,10.504294 -7.445672,15.810288 -0.876999,1.938998 -1.387987,4.041256 -2.155986,6.034254 -0.919999,2.386997 -1.989451,4.717227 -2.89345,7.110225 -0.416082,1.102528 -0.929504,2.93438 -1.477017,4.84083 z"
       transform="matrix(-0.2473582,0,0,0.24638193,265.29475,364.16142)" />
  </g>
</svg>
