<?xml version="1.0" encoding="UTF-8" standalone="no"?>
<!-- Created with Inkscape (http://www.inkscape.org/) -->

<svg
   width="109.39815mm"
   height="75.000153mm"
   viewBox="0 0 109.39815 75.000153"
   version="1.1"
   id="svg1"
   sodipodi:docname="2-part-tree-75mm.svg"
   inkscape:version="1.3 (0e150ed, 2023-07-21)"
   xmlns:inkscape="http://www.inkscape.org/namespaces/inkscape"
   xmlns:sodipodi="http://sodipodi.sourceforge.net/DTD/sodipodi-0.dtd"
   xmlns="http://www.w3.org/2000/svg"
   xmlns:svg="http://www.w3.org/2000/svg">
  <sodipodi:namedview
     id="namedview1"
     pagecolor="#ffffff"
     bordercolor="#000000"
     borderopacity="0.25"
     inkscape:showpageshadow="2"
     inkscape:pageopacity="0.0"
     inkscape:pagecheckerboard="0"
     inkscape:deskcolor="#d1d1d1"
     inkscape:document-units="mm"
     inkscape:zoom="0.70524838"
     inkscape:cx="287.13288"
     inkscape:cy="-56.717606"
     inkscape:window-width="1408"
     inkscape:window-height="769"
     inkscape:window-x="0"
     inkscape:window-y="25"
     inkscape:window-maximized="0"
     inkscape:current-layer="layer1" />
  <defs
     id="defs1">
    <clipPath
       clipPathUnits="userSpaceOnUse"
       id="clipPath288">
      <path
         d="M 0,792 H 612 V 0 H 0 Z"
         transform="translate(-356.41601,-313.15181)"
         id="path288" />
    </clipPath>
    <clipPath
       clipPathUnits="userSpaceOnUse"
       id="clipPath288-8">
      <path
         d="M 0,792 H 612 V 0 H 0 Z"
         transform="translate(-356.41601,-313.15181)"
         id="path288-1" />
    </clipPath>
    <clipPath
       clipPathUnits="userSpaceOnUse"
       id="clipPath288-2">
      <path
         d="M 0,792 H 612 V 0 H 0 Z"
         transform="translate(-356.41601,-313.15181)"
         id="path288-6" />
    </clipPath>
  </defs>
  <g
     inkscape:label="Layer 1"
     inkscape:groupmode="layer"
     id="layer1"
     transform="translate(-163.87245,-314.99984)">
    <path
       id="path287"
       clip-path="url(#clipPath288)"
       style="display:inline;fill:none;fill-opacity:1;fill-rule:nonzero;stroke:#231f20;stroke-width:1.35125;stroke-linecap:butt;stroke-linejoin:miter;stroke-miterlimit:10;stroke-dasharray:none;stroke-opacity:1"
       d="m 42.42709,106.15714 c -0.59147,-0.0755 -0.519751,-0.30149 -0.696839,-0.85926 C 41.376076,104.18235 39.748849,98.867029 38.86485,96.333032 38.037851,93.965034 37.190885,91.600224 36.255886,89.274227 35.229887,86.721229 34.109467,84.204429 32.997468,81.686431 31.560469,78.433435 30.226807,75.125676 28.601809,71.96868 26.553811,67.989684 24.351372,64.082716 22.040375,60.24972 19.774377,56.494724 17.371295,52.813089 14.871297,49.208092 13.062299,46.600095 11.054999,44.121474 9.029001,41.673476 6.6910034,38.850479 4.325174,36.040156 1.8041765,33.383159 -0.72482093,30.718162 -3.4354894,28.221797 -6.1174867,25.705799 -7.0924857,24.7918 -8.2119864,24.033187 -9.2699854,23.209188 -11.625983,21.37219 -13.933232,19.467157 -16.358229,17.726159 c -1.985998,-1.424999 -4.195483,-2.544417 -6.154481,-4.002415 -1.834998,-1.363999 -3.848171,-2.38547 -5.870169,-3.361469 -2.468998,-1.1929988 -5.068546,-2.1109387 -7.595543,-3.1879376 -0.336,-0.1429999 -0.568747,-0.5290147 -1.025747,-0.9740143 1.105999,-0.7739992 2.080322,-1.3815717 2.971321,-2.093571 3.318996,-2.6549973 7.132131,-4.19002241 11.258127,-4.9960216 1.676998,-0.3279997 3.379563,-0.5439076 5.078561,-0.7389074 1.017999,-0.1169999 2.050241,-0.1123468 3.07724,-0.1343468 1.402999,-0.029 2.83112,-0.1975976 4.206119,-0.0056 2.7819973,0.3879996 5.5355337,0.9826142 8.3035309,1.48061371 0.5819995,0.10499989 1.17302881,0.16228596 2.11002787431,0.28828583781 C -1.8432404,-4.0032179 -4.3756038,-7.1613254 -6.7976014,-10.352322 -17.94659,-25.037308 -31.918107,-35.951072 -49.851089,-41.809066 c 0.56,-0.603999 0.828926,-1.021892 1.206925,-1.281892 1.401999,-0.961999 2.774592,-1.996904 4.27859,-2.770903 2.068998,-1.063999 4.188195,-2.099686 6.394193,-2.815685 3.445997,-1.119999 7.021212,-1.801307 10.667208,-1.749307 2.376998,0.034 4.768695,0.178801 7.121692,0.5038 2.029998,0.28 4.013345,0.883033 6.405342,1.433033 -1.131998,-1.708998 -2.060407,-3.11801 -2.996406,-4.523009 -2.265998,-3.402997 -4.513086,-6.818366 -6.815084,-10.196362 -0.651999,-0.957999 -1.479011,-1.79553 -2.20201,-2.706529 -2.053998,-2.587997 -4.037844,-5.233329 -6.162842,-7.761326 -1.370999,-1.630999 -3.153425,-2.948749 -4.359424,-4.679747 -1.137999,-1.633998 -2.620833,-2.888512 -3.960831,-4.265511 -2.254998,-2.316998 -4.827913,-4.322436 -7.249911,-6.479434 -0.732999,-0.653 -1.351391,-1.440991 -2.11839,-2.04599 -1.807998,-1.426999 -3.641327,-2.832557 -5.527325,-4.153555 -2.954997,-2.070998 -5.882712,-4.194206 -8.969709,-6.051207 -2.667997,-1.605 -5.521407,-2.91211 -8.331404,-4.27111 -1.363999,-0.659 -2.81842,-1.12912 -4.228418,-1.69612 -1.010999,-0.406 -1.204338,-1.12229 -0.454339,-1.80529 0.988999,-0.902 2.008856,-1.77056 3.029855,-2.63656 1.788998,-1.51799 3.873816,-2.49062 5.992814,-3.47062 3.140996,-1.452 6.393493,-2.31875 9.81149,-2.64775 4.438995,-0.428 8.871113,-0.50511 13.290109,0.26589 0.707999,0.123 1.444396,0.0859 2.249395,0.12595 -0.712999,-1.128 -1.282258,-2.20335 -2.015257,-3.15435 -2.500998,-3.245 -5.021695,-6.47638 -7.606693,-9.65338 -2.666997,-3.27799 -5.375016,-6.52715 -8.153013,-9.71215 -1.240999,-1.423 -2.692178,-2.66543 -4.061177,-3.97443 -1.185998,-1.13299 -2.396327,-2.23906 -3.587326,-3.36706 -1.817998,-1.72 -3.544218,-3.55017 -5.463216,-5.14716 -2.587997,-2.154 -5.322137,-4.13256 -7.994134,-6.18556 -0.097,-0.075 -0.187098,-0.1585 -0.287098,-0.2295 -2.938997,-2.08 -5.860769,-4.18074 -8.824766,-6.22474 -1.151999,-0.795 -2.399477,-1.45514 -3.598476,-2.18313 -3.674996,-2.229 -7.635165,-3.8652 -11.559165,-5.5782 -0.574,-0.251 -1.08842,-0.63715 -1.93442,-1.13914 1.444,-1.059 2.54665,-2.00832 3.77965,-2.73732 2.106,-1.248 4.292157,-2.35881 6.447155,-3.52381 2.698998,-1.45899 5.518839,-2.57821 8.456836,-3.50421 5.571994,-1.757 11.255596,-2.53544 17.01959,-1.90045 4.791995,0.529 9.610958,1.22755 14.117954,3.17955 0.675999,0.292 1.38223,0.82088 2.330229,0.29388 -0.236,-0.412 -0.415454,-0.78816 -0.649454,-1.12516 -1.840998,-2.65599 -3.774752,-5.25244 -5.521751,-7.96844 -2.509997,-3.903 -5.701913,-7.15518 -9.189909,-10.15718 -1.065999,-0.917 -2.120885,-1.84651 -3.199884,-2.74851 -0.697999,-0.583 -1.413626,-1.15333 -2.154626,-1.67933 -1.492998,-1.062 -2.978091,-2.13577 -4.52109,-3.12077 -2.315997,-1.477 -4.616074,-2.99351 -7.038071,-4.2795 -2.042998,-1.085 -4.240833,-1.88571 -6.385831,-2.77371 -4.560995,-1.88899 -9.073148,-3.93624 -14.076148,-4.42224 -0.241,-0.024 -0.47498,-0.11893 -0.70798,-0.19593 -2.75,-0.915 -5.58899,-1.30759 -8.46799,-1.52259 -0.601,-0.045 -1.18102,-0.38115 -1.97902,-0.65215 2.665,-2.89599 5.01883,-5.59023 7.70982,-7.99923 3.837,-3.43499 7.6868,-6.78893 12.258792,-9.26993 4.681995,-2.54199 9.571159,-4.39571 14.823154,-5.27871 1.508999,-0.254 3.031028,-0.71133 4.535027,-0.66333 4.522995,0.144 9.01505,0.62131 13.304046,2.23631 1.148999,0.433 2.314471,0.82331 3.46747,1.24831 2.650997,0.97699 5.222177,2.13146 7.456175,3.89046 1.665998,1.31199 3.246298,2.73917 4.872296,4.10317 0.069,0.057 0.224742,0.006 0.409742,0.006 0.269999,-0.656 0.573482,-1.32181 0.819482,-2.00681 1.912998,-5.31099 4.778885,-10.03796 8.534881,-14.25195 2.950997,-3.311 6.252661,-6.20876 10.215657,-8.18676 3.216997,-1.606 6.509016,-3.11949 10.093013,-3.82049 0.947999,-0.185 1.890718,-0.78212 2.795717,-0.70812 1.723998,0.143 2.636189,-0.70199 3.353188,-2.03199 0.811999,-1.505 1.605,-3.02022 2.424999,-4.52021 1.731998,-3.164 3.5129939,-6.30225 5.2039922,-9.48825 1.1169988,-2.10199 2.0595859,-4.29906 3.1775848,-6.40106 1.3769986,-2.591 2.8661662,-5.12136 4.28416482,-7.69136 0.67699932,-1.22799 1.31257448,-2.47892 1.94557388,-3.73092 0.3459996,-0.686 0.8673909,-0.92123 1.6333901,-0.92923 3.8959961,-0.038 7.7913842,-0.13233 11.6873802,-0.19033 2.367997,-0.036 4.735183,-0.0548 7.102181,-0.0588 2.610997,-0.005 5.227683,-0.0988 7.82968,0.0532 2.624753,0.15362 6.103506,0.14763 7.994135,0.0112 V -94.204318 H 55.859354 V -298.43385 c 1.656733,-0.0731 3.38868,-0.18512 4.824912,-0.18472 1.797998,5e-4 3.167655,0.28089 4.749653,0.27989 3.220997,-0.004 6.439976,-0.16094 9.660973,-0.16794 2.916997,-0.006 5.835298,0.11694 8.752295,0.15394 1.703998,0.022 3.439649,0.18843 5.103647,-0.0756 1.795999,-0.286 3.51019,-0.26619 5.293188,-0.0112 0.940999,0.135 1.403545,0.54548 1.775545,1.31548 1.592998,3.30699 3.218977,6.59828 4.810973,9.90527 0.449,0.931 0.79559,1.91148 1.23759,2.84648 2.063,4.36899 4.14659,8.72722 6.21859,13.09321 1.024,2.159 2.02788,4.33124 3.06887,6.48224 0.256,0.52899 0.45544,1.08711 1.22644,1.22311 4.001,0.702 7.84761,1.94851 11.46161,3.7785 2.55799,1.295 5.2194,2.60124 7.3614,4.45024 2.611,2.253 5.0354,4.77098 7.09939,7.62698 2.609,3.608 4.77422,7.40602 6.30221,11.57902 0.138,0.377 0.32862,0.7361 0.56862,1.2651 2.106,-1.493 4.06914,-2.90231 6.05414,-4.28231 0.649,-0.451 1.38262,-0.78171 2.02362,-1.24271 3.292,-2.37199 7.13116,-3.627 10.94316,-4.55099 3.13199,-0.759 6.4444,-1.37343 9.7864,-0.94043 1.204,0.156 2.47759,-0.14603 3.66258,0.07 3.416,0.622 6.83106,1.28413 10.04006,2.71213 3.85299,1.71499 7.77589,3.29923 11.09088,5.99522 2.797,2.277 5.63217,4.51985 8.29517,6.94685 1.986,1.811 3.73656,3.88168 5.56356,5.86368 0.38,0.413 0.63384,0.94178 1.05084,1.57578 -0.657,0.143 -1.00781,0.24788 -1.36581,0.29388 -1.641,0.207 -3.29847,0.31276 -4.92247,0.61576 -2.031,0.379 -4.05599,0.83444 -6.04298,1.39944 -3.177,0.902 -6.35686,1.81984 -9.46586,2.92484 -2.301,0.818 -4.5431,1.84663 -6.7231,2.95563 -3.211,1.634 -6.48744,3.20635 -9.47143,5.20034 -3.849,2.573 -7.58966,5.29506 -11.05466,8.44706 -3.93699,3.58199 -7.35253,7.50168 -10.24353,11.93167 -1.03099,1.581 -2.12879,3.11715 -3.17479,4.68815 -0.425,0.64 -0.79342,1.31781 -1.18742,1.97881 0.08,0.116 0.1625,0.23387 0.2425,0.34987 3.417,-1.301 6.83668,-2.5136 10.47767,-3.0536 3.701,-0.55 7.42555,-1.05904 11.12155,-0.89004 3.624,0.166 7.26358,0.7225 10.80657,1.77449 3.595,1.069 6.90686,2.73952 10.30486,4.25152 3.34599,1.49 6.30946,3.46761 9.15646,6.04561 -1.685,0.725 -3.10713,1.26803 -4.46813,1.93403 -2.849,1.392 -5.70914,2.7695 -8.47914,4.30749 -2.08099,1.156 -3.93692,2.7389 -6.05692,3.8009 -3.198,1.601 -5.80608,4.01804 -8.75508,5.95604 -2.685,1.764 -5.03514,4.04138 -7.50914,6.11838 -0.557,0.468 -0.99004,1.07758 -1.53304,1.56458 -1.764,1.582 -3.59628,3.09293 -5.31828,4.71893 -1.51099,1.426 -2.94906,2.93563 -4.35106,4.47263 -2.30199,2.524 -4.60593,5.05017 -6.80393,7.66616 -2.424,2.885 -4.70682,5.88732 -7.09382,8.80532 -1.393,1.70399 -2.16909,3.85509 -3.90508,5.31509 -0.28,0.235 -0.33926,0.73051 -0.56026,1.24551 0.512,0.035 0.86192,0.0974 1.20692,0.0784 2.691,-0.141 5.3784,-0.31423 8.0694,-0.44223 0.85399,-0.041 1.71294,0.017 2.56994,0.042 1.023,0.029 2.05109,0.016 3.06609,0.12595 0.662,0.072 1.29851,0.3734 1.95951,0.4954 3.241,0.598 6.40309,1.26844 9.37109,2.93044 2.03799,1.142 4.07651,2.23652 5.83951,3.75051 0.93199,0.8 2.03492,1.52063 2.66192,2.96963 -0.978,0.44 -1.84082,0.86252 -2.72882,1.21752 -0.968,0.388 -2.07315,0.54116 -2.92115,1.09716 -3.021,1.984 -6.45643,3.15834 -9.47143,5.21434 -3.642,2.482995 -7.46597,4.696812 -10.85396,7.545809 -2.385,2.005998 -4.78919,3.993994 -7.10218,6.081992 -4.411,3.981996 -8.77242,8.008526 -12.34241,12.824521 -1.931,2.602998 -4.18519,4.963049 -6.26319,7.459047 -0.934,1.121999 -1.85629,2.263425 -2.67029,3.473424 -1.67099,2.485998 -3.23095,5.047619 -4.90295,7.534617 -1.33,1.977998 -2.77108,3.880288 -4.12808,5.841286 -0.201,0.291 -0.21042,0.713117 -0.34842,1.223116 0.642,-0.168 1.05837,-0.257448 1.46337,-0.383448 5.20699,-1.617998 10.51337,-2.080255 15.92137,-1.374256 6.02099,0.785999 11.3697,3.304454 16.46769,6.437451 0.742,0.455 1.31476,1.18923 2.12675,1.94523 -0.59999,0.279999 -0.90458,0.495175 -1.23758,0.568175 -3.496,0.763999 -6.7456,2.177276 -9.8756,3.851275 -2.576,1.376998 -5.26821,2.536881 -7.6262,4.34388 -2.075,1.589998 -4.41548,2.832658 -6.50848,4.402656 -2.192,1.643998 -4.31315,3.407712 -6.31614,5.27871 -3.623,3.383996 -7.0044,7.004262 -10.0094,10.963258 -1.514,1.994999 -3.159795,3.8890606 -4.629794,5.9140586 -1.364998,1.8789981 -2.577551,3.8708977 -3.84655,5.81889577 -0.056,0.0849999 -0.0084,0.23661625 -0.0084,0.46461602 0.234,0 0.472264,0.0404022 0.691264,-0.005598 1.375999,-0.28999971 2.7335,-0.76405874 4.122498,-0.86205859 1.996992,-0.1409999 3.914302,-0.8773537 5.973302,-0.621354 1.376,0.1709999 2.79618,-0.033006 4.19218,0.013994 1.938,0.064 3.90949,0.00706 5.80049,0.361057 3.05099,0.57199941 6.0713,1.23389875 8.8833,2.7848972 1.924,1.059999 3.82876,2.1372746 5.65275,3.3502733 0.525,0.3479997 0.88342,0.9462342 1.31842,1.4302337 -0.564,0.4179996 -1.07907,1.0829202 -1.70307,1.2119201 -2.344,0.4819995 -4.2387,1.8612395 -6.2827,2.9332379 -2.065,1.081999 -4.02667,2.359057 -6.11267,3.395056 -3.54,1.758998 -6.73798,4.011034 -9.79198,6.485032 -1.899,1.536998 -3.78067,3.095743 -5.62767,4.693741 -1.802995,1.560999 -3.654335,3.085101 -5.304333,4.800099 -3.612997,3.756997 -7.239039,7.518857 -10.617036,11.483853 -2.440997,2.864997 -4.505166,6.051993 -6.709164,9.11599 -0.927999,1.290999 -1.782861,2.636036 -2.675861,3.952035 -1.438998,2.123998 -2.96289,4.195475 -4.300888,6.381473 -1.529999,2.501998 -3.012678,5.044564 -4.303677,7.674561 -2.568997,5.227995 -5.045815,10.502146 -7.447813,15.80814 -0.876999,1.938998 -1.386626,4.044212 -2.154625,6.03721 -0.919999,2.386997 -1.989276,4.716187 -2.893275,7.109184 -0.690999,1.830999 -2.078815,7.19784 -2.452872,8.03842 -0.374059,0.84055 0.07215,0.69809 -5.591435,0.76689 -2.831794,0.0344 -4.088499,0.10913 -4.679969,0.0336 z"
       transform="matrix(0.18539594,0,0,-0.18463177,186.26911,334.73165)" />
    <path
       id="path287-4"
       clip-path="url(#clipPath288-2)"
       style="display:inline;fill:none;fill-opacity:1;fill-rule:nonzero;stroke:#231f20;stroke-width:1.35125;stroke-linecap:butt;stroke-linejoin:miter;stroke-miterlimit:10;stroke-dasharray:none;stroke-opacity:1"
       d="M 55.858621,95.575858 V -98.266982 H 38.328945 V 94.884532 c -0.665987,-1.88009 -1.330479,-3.762638 -2.073792,-5.611778 -1.025999,-2.552997 -2.14642,-5.066999 -3.258419,-7.584996 -1.436998,-3.252997 -2.77066,-6.560755 -4.395659,-9.717752 C 26.553077,67.99101 24.350639,64.081244 22.039641,60.248248 19.773644,56.493251 17.370562,52.814415 14.870564,49.209419 13.061566,46.601421 11.057053,44.120001 9.031055,41.672004 6.6930574,38.849006 4.327228,36.038684 1.8062306,33.381686 c -2.52899751,-2.664997 -5.2424533,-5.161362 -7.9244507,-7.677359 -0.974999,-0.913999 -2.0944997,-1.672613 -3.1524986,-2.496612 -2.3559973,-1.836998 -4.6632463,-3.74203 -7.0882443,-5.483029 -1.985998,-1.424998 -4.195482,-2.541617 -6.15448,-3.999616 -1.834998,-1.363998 -3.845384,-2.388268 -5.867382,-3.364267 -2.468998,-1.1929993 -5.071333,-2.1109392 -7.59833,-3.1879381 -0.336,-0.1429999 -0.568748,-0.5262158 -1.025747,-0.9712154 1.105999,-0.7739992 2.083109,-1.3815717 2.974108,-2.093571 3.318996,-2.6549973 7.129344,-4.1928213 11.25534,-4.99882049 1.676998,-0.32799971 3.379562,-0.54110871 5.078561,-0.73610851 1.017999,-0.1169999 2.053028,-0.1123468 3.080027,-0.1343468 1.402999,-0.029 2.828333,-0.2003965 4.203332,-0.0084 2.7819969,0.3879996 5.5355334,0.98261421 8.3035306,1.48061372 0.5819994,0.10499989 1.17302878,0.16228596 2.110027840934,0.28828583751 C -1.8439737,-4.0046904 -4.3763371,-7.159999 -6.7983347,-10.350996 -17.947324,-25.035981 -31.91884,-35.949745 -49.851822,-41.807739 c 0.56,-0.604 0.831713,-1.021893 1.209712,-1.281893 1.401999,-0.961999 2.771804,-1.996903 4.275803,-2.770902 2.068998,-1.063999 4.188195,-2.099686 6.394193,-2.815685 3.445996,-1.119999 7.021211,-1.804107 10.667208,-1.752107 2.376997,0.034 4.768694,0.1816 7.121692,0.5066 2.029998,0.279999 4.016132,0.883033 6.408129,1.433032 -1.131998,-1.708998 -2.063195,-3.11801 -2.999194,-4.523009 -2.265997,-3.402996 -4.513085,-6.818365 -6.815083,-10.196362 -0.651999,-0.957999 -1.479011,-1.795529 -2.202011,-2.706528 -2.053997,-2.587998 -4.037844,-5.236128 -6.162842,-7.764126 -1.370998,-1.630998 -3.153424,-2.945949 -4.359423,-4.676948 -1.137999,-1.633998 -2.618046,-2.891311 -3.958044,-4.26831 -2.254998,-2.316997 -4.830701,-4.319637 -7.252698,-6.476635 -0.733,-0.652999 -1.351391,-1.44099 -2.11839,-2.04599 -1.807998,-1.426998 -3.63854,-2.835355 -5.524538,-4.156354 -2.954997,-2.070998 -5.885499,-4.194205 -8.972496,-6.051204 -2.667998,-1.605 -5.521408,-2.90931 -8.331405,-4.26831 -1.363998,-0.659 -2.818419,-1.13193 -4.228417,-1.69893 -1.010999,-0.406 -1.204339,-1.11948 -0.454339,-1.80248 0.988999,-0.902 2.008856,-1.77336 3.029855,-2.63936 1.788998,-1.518 3.873815,-2.49062 5.992813,-3.47062 3.140997,-1.452 6.393494,-2.31596 9.81149,-2.64496 4.438996,-0.428 8.871114,-0.5051 13.290109,0.2659 0.708,0.123 1.444397,0.0859 2.249396,0.12595 -0.712999,-1.128 -1.282258,-2.20615 -2.015258,-3.15715 -2.500997,-3.245 -5.021694,-6.47358 -7.606692,-9.65058 -2.666997,-3.278 -5.375016,-6.52716 -8.153014,-9.71215 -1.240998,-1.423 -2.68939,-2.66543 -4.058389,-3.97443 -1.185998,-1.133 -2.396327,-2.24187 -3.587326,-3.36987 -1.817998,-1.71999 -3.544218,-3.55016 -5.463216,-5.14716 -2.587997,-2.15399 -5.322137,-4.12975 -7.994134,-6.18275 -0.097,-0.075 -0.189885,-0.15851 -0.289885,-0.22951 -2.938997,-2.08 -5.860769,-4.18073 -8.824766,-6.22473 -1.151999,-0.795 -2.39669,-1.45514 -3.595689,-2.18314 -3.674996,-2.229 -7.635169,-3.86799 -11.559159,-5.58099 -0.574,-0.251 -1.09121,-0.63435 -1.93721,-1.13635 1.44399,-1.059 2.54665,-2.01111 3.77965,-2.74011 2.106,-1.248 4.292154,-2.35601 6.447152,-3.52101 2.698997,-1.459 5.521626,-2.57821 8.459623,-3.50421 5.571994,-1.757 11.255596,-2.53825 17.01959,-1.90325 4.791995,0.529 9.608171,1.22755 14.115166,3.17954 0.676,0.292 1.38223,0.82089 2.330229,0.29389 -0.235999,-0.412 -0.415454,-0.78536 -0.649453,-1.12236 -1.840999,-2.656 -3.774753,-5.25245 -5.521751,-7.96844 -2.509997,-3.903 -5.701913,-7.15518 -9.18991,-10.15718 -1.065999,-0.917 -2.120885,-1.84931 -3.199883,-2.75131 -0.698,-0.583 -1.413627,-1.15054 -2.154626,-1.67654 -1.492999,-1.062 -2.978092,-2.13576 -4.52109,-3.12076 -2.315998,-1.477 -4.616074,-2.99631 -7.038072,-4.28231 -2.042998,-1.085 -4.240832,-1.8857 -6.38583,-2.7737 -4.560996,-1.889 -9.073145,-3.93625 -14.076145,-4.42225 -0.241,-0.024 -0.47499,-0.11612 -0.70799,-0.19312 -2.74999,-0.915 -5.58898,-1.3104 -8.46798,-1.5254 -0.601,-0.045 -1.18102,-0.37834 -1.97902,-0.64934 2.66499,-2.896 5.01882,-5.59023 7.70982,-7.99923 3.837,-3.435 7.68679,-6.79173 12.258788,-9.27273 4.681996,-2.542 9.57116,-4.39571 14.823155,-5.27871 1.508998,-0.254 3.031028,-0.71134 4.535027,-0.66334 4.522995,0.144 9.017837,0.62132 13.306833,2.23632 1.148999,0.433 2.311683,0.8261 3.464682,1.2511 2.650998,0.977 5.222178,2.13146 7.456175,3.89046 1.665999,1.312 3.246299,2.73638 4.872297,4.10038 0.069,0.057 0.227529,0.008 0.412529,0.008 0.269999,-0.65599 0.570695,-1.3218 0.816695,-2.0068 1.912998,-5.311 4.781672,-10.03796 8.537668,-14.25196 2.950997,-3.31099 6.249874,-6.21156 10.21287,-8.18955 3.216996,-1.606 6.509016,-3.11669 10.093012,-3.81769 0.948,-0.185 1.890719,-0.78492 2.795718,-0.71092 1.723998,0.143 2.638976,-0.702 3.355975,-2.032 0.811999,-1.50499 1.602213,-3.02021 2.422212,-4.52021 1.731998,-3.16399 3.5129935,-6.30224 5.2039918,-9.48824 1.1169989,-2.102 2.059586,-4.29627 3.1775849,-6.39827 1.3769986,-2.59099 2.8661662,-5.12135 4.28416479,-7.69135 0.67699932,-1.228 1.31257451,-2.48172 1.94557391,-3.73372 0.3459996,-0.686 0.8673908,-0.91843 1.6333901,-0.92643 3.8959961,-0.038 7.7913835,-0.13233 11.6873795,-0.19033 2.367998,-0.036 4.735184,-0.0548 7.102181,-0.0588 2.610998,-0.005 5.227683,-0.0988 7.829681,0.0532 2.989997,0.175 7.456199,0.17751 8.950197,-0.028 1.493999,-0.2055 11.944605,0.0709 12.431604,0.10636 0.487,0.0355 1.956293,0.12376 2.932298,0.098 2.013992,-0.0532 4.2422,-0.2328 6.040198,-0.2323 1.797998,5e-4 3.164868,0.28088 4.746866,0.27988 3.220997,-0.004 6.442763,-0.15813 9.66376,-0.16513 2.916997,-0.006 5.832511,0.11694 8.749508,0.15394 1.703998,0.022 3.439649,0.18563 5.103647,-0.0784 1.795998,-0.286 3.510189,-0.2662 5.293187,-0.0112 0.941,0.135 1.403546,0.54828 1.775546,1.31828 1.592998,3.307 3.218976,6.59828 4.810976,9.90528 0.449,0.931 0.79837,1.90868 1.24037,2.84367 2.063,4.369 4.14381,8.73002 6.2158,13.09602 1.024,2.159 2.02788,4.32843 3.06888,6.47943 0.256,0.529 0.45544,1.08712 1.22644,1.22312 4.00099,0.702 7.84761,1.9513 11.4616,3.7813 2.558,1.295 5.2222,2.59844 7.36419,4.44744 2.611,2.253 5.03261,4.77378 7.09661,7.62978 2.609,3.60799 4.77421,7.40602 6.30221,11.57901 0.138,0.377 0.32862,0.7333 0.56862,1.2623 2.106,-1.493 4.06914,-2.8995 6.05414,-4.2795 0.649,-0.451 1.38262,-0.78171 2.02362,-1.24271 3.29199,-2.372 7.13116,-3.6298 10.94315,-4.5538 3.132,-0.759 6.44441,-1.37062 9.78641,-0.93763 1.20399,0.156 2.47758,-0.14882 3.66258,0.0672 3.416,0.622 6.83106,1.28692 10.04005,2.71492 3.853,1.715 7.77868,3.29923 11.09368,5.99523 2.79699,2.277 5.63217,4.51705 8.29517,6.94405 1.98599,1.811 3.73377,3.88448 5.56077,5.86648 0.38,0.413 0.63662,0.93897 1.05362,1.57297 -0.657,0.143 -1.0078,0.24789 -1.3658,0.29389 -1.641,0.207 -3.30126,0.31555 -4.92526,0.61855 -2.031,0.379 -4.05599,0.83445 -6.04299,1.39945 -3.17699,0.902 -6.35686,1.81984 -9.46585,2.92484 -2.301,0.818 -4.54311,1.84663 -6.72311,2.95563 -3.21099,1.634 -6.48743,3.20354 -9.47143,5.19754 -3.84899,2.573 -7.58965,5.29786 -11.05465,8.44985 -3.93699,3.582 -7.35253,7.50168 -10.24353,11.93168 -1.031,1.581 -2.1288,3.11435 -3.1748,4.68534 -0.425,0.64 -0.79062,1.32062 -1.18462,1.98162 0.08,0.116 0.15971,0.23106 0.23971,0.34706 3.417,-1.301 6.83667,-2.51359 10.47767,-3.05359 3.70099,-0.55 7.42834,-1.05905 11.12433,-0.89005 3.624,0.166 7.26358,0.7253 10.80658,1.7773 3.595,1.069 6.90685,2.73672 10.30485,4.24872 3.346,1.49 6.30668,3.46761 9.15367,6.0456 -1.68499,0.725 -3.10434,1.27084 -4.46534,1.93684 -2.849,1.392 -5.71192,2.76669 -8.48192,4.30469 -2.081,1.156 -3.93692,2.7389 -6.05692,3.8009 -3.198,1.601 -5.80609,4.01804 -8.75508,5.95604 -2.685,1.764 -5.03235,4.04418 -7.50635,6.12117 -0.557,0.468 -0.99284,1.07759 -1.53583,1.56459 -1.764,1.58199 -3.59628,3.09013 -5.31828,4.71613 -1.511,1.426 -2.94906,2.93563 -4.35106,4.47263 -2.302,2.52399 -4.60594,5.05016 -6.80393,7.66616 -2.424,2.885 -4.70682,5.89012 -7.09382,8.80811 -1.393,1.704 -2.16909,3.8523 -3.90509,5.3123 -0.28,0.235 -0.33926,0.73331 -0.56026,1.24831 0.512,0.035 0.86193,0.0946 1.20693,0.0756 2.691,-0.141 5.3784,-0.31143 8.06939,-0.43943 0.854,-0.041 1.71573,0.0142 2.57273,0.0392 1.023,0.029 2.05109,0.0188 3.06609,0.12875 0.662,0.072 1.29573,0.37341 1.95673,0.49541 3.24099,0.598 6.40309,1.26564 9.37108,2.92764 2.038,1.142 4.07651,2.23931 5.83951,3.75331 0.932,0.8 2.03493,1.52063 2.66193,2.96962 -0.978,0.44 -1.83804,0.86252 -2.72604,1.21752 -0.968,0.388 -2.07593,0.54117 -2.92393,1.09717 -3.021,1.984 -6.45365,3.15834 -9.46865,5.21433 -3.64199,2.483001 -7.46875,4.696818 -10.85675,7.545816 -2.38499,2.005998 -4.78918,3.993993 -7.10218,6.081991 -4.41099,3.981996 -8.76962,8.005728 -12.33962,12.821723 -1.931,2.602997 -4.18797,4.963049 -6.26597,7.459046 -0.934,1.121999 -1.85629,2.266225 -2.67029,3.476224 -1.671,2.485997 -3.23096,5.04482 -4.90296,7.531817 -1.32999,1.977998 -2.76828,3.883088 -4.12528,5.844086 -0.201,0.291 -0.21042,0.713116 -0.34842,1.223116 0.642,-0.168 1.05557,-0.260248 1.46057,-0.386248 5.207,-1.617998 10.51338,-2.080255 15.92138,-1.374255 6.02099,0.785999 11.37248,3.307253 16.47048,6.440249 0.742,0.455 1.31196,1.189231 2.12396,1.94523 -0.6,0.28 -0.90458,0.492376 -1.23758,0.565376 -3.496,0.763999 -6.74561,2.180076 -9.8756,3.854074 -2.576,1.376999 -5.26821,2.536882 -7.62621,4.34388 -2.075,1.589998 -4.41547,2.829859 -6.50847,4.399858 -2.192,1.643998 -4.31315,3.407711 -6.31615,5.278709 -3.62299,3.383997 -7.00161,7.007062 -10.0066,10.966058 -1.514,1.994998 -3.162589,3.88906 -4.632587,5.914058 -1.364999,1.8789981 -2.577552,3.8708977 -3.84655,5.81889577 -0.056,0.0849999 -0.0056,0.23661625 -0.0056,0.46461602 0.234,0 0.469477,0.0404022 0.688477,-0.005598 1.375998,-0.28999971 2.736287,-0.76685763 4.125285,-0.86485749 1.997005,-0.1409999 3.914305,-0.8773537 5.973305,-0.621354 1.376,0.1709999 2.7934,-0.033005 4.1894,0.013995 1.938,0.064 3.91227,0.00706 5.80327,0.361057 3.051,0.57199942 6.06852,1.23389876 8.88051,2.7848972 1.924,1.059999 3.82876,2.1400735 5.65276,3.3530722 0.525,0.3479997 0.88342,0.9462342 1.31842,1.4302337 -0.564,0.4179996 -1.07629,1.0829202 -1.70029,1.2119201 -2.344,0.4819995 -4.24149,1.8584406 -6.28548,2.9304395 -2.065,1.081999 -4.02668,2.361855 -6.11267,3.397854 -3.54,1.758998 -6.73798,4.008236 -9.79198,6.482233 -1.899,1.536999 -3.78067,3.095743 -5.62767,4.693742 -1.803005,1.560998 -3.654345,3.087899 -5.304343,4.802898 -3.612997,3.756996 -7.236252,7.516057 -10.614249,11.481053 -2.440997,2.864998 -4.507953,6.054793 -6.711951,9.118789 -0.927999,1.290999 -1.780074,2.633238 -2.673073,3.949237 -1.438999,2.123997 -2.962891,4.195475 -4.300889,6.381473 -1.529999,2.501997 -3.015465,5.044563 -4.306464,7.674561 -2.568998,5.227994 -5.043028,10.504944 -7.445026,15.810939 -0.876999,1.938998 -1.389413,4.041412 -2.157413,6.03441 -0.694731,1.802527 -1.455277,3.579361 -2.185286,5.368274 z"
       transform="matrix(-0.18539594,0,0,0.18463177,250.87381,371.75556)" />
  </g>
</svg>
