<?xml version="1.0" encoding="UTF-8" standalone="no"?>
<!-- Created with Inkscape (http://www.inkscape.org/) -->

<svg
   width="73.340744mm"
   height="49.997276mm"
   viewBox="0 0 73.340744 49.997276"
   version="1.1"
   id="svg1"
   sodipodi:docname="2-part-tree-50mm.svg"
   inkscape:version="1.3 (0e150ed, 2023-07-21)"
   xmlns:inkscape="http://www.inkscape.org/namespaces/inkscape"
   xmlns:sodipodi="http://sodipodi.sourceforge.net/DTD/sodipodi-0.dtd"
   xmlns="http://www.w3.org/2000/svg"
   xmlns:svg="http://www.w3.org/2000/svg">
  <sodipodi:namedview
     id="namedview1"
     pagecolor="#ffffff"
     bordercolor="#000000"
     borderopacity="0.25"
     inkscape:showpageshadow="2"
     inkscape:pageopacity="0.0"
     inkscape:pagecheckerboard="0"
     inkscape:deskcolor="#d1d1d1"
     inkscape:document-units="mm"
     inkscape:zoom="0.70524838"
     inkscape:cx="132.5774"
     inkscape:cy="225.45248"
     inkscape:window-width="1408"
     inkscape:window-height="769"
     inkscape:window-x="0"
     inkscape:window-y="25"
     inkscape:window-maximized="0"
     inkscape:current-layer="layer1" />
  <defs
     id="defs1">
    <clipPath
       clipPathUnits="userSpaceOnUse"
       id="clipPath288">
      <path
         d="M 0,792 H 612 V 0 H 0 Z"
         transform="translate(-356.41601,-313.15181)"
         id="path288" />
    </clipPath>
    <clipPath
       clipPathUnits="userSpaceOnUse"
       id="clipPath288-8">
      <path
         d="M 0,792 H 612 V 0 H 0 Z"
         transform="translate(-356.41601,-313.15181)"
         id="path288-1" />
    </clipPath>
    <clipPath
       clipPathUnits="userSpaceOnUse"
       id="clipPath288-2">
      <path
         d="M 0,792 H 612 V 0 H 0 Z"
         transform="translate(-356.41601,-313.15181)"
         id="path288-6" />
    </clipPath>
  </defs>
  <g
     inkscape:label="Layer 1"
     inkscape:groupmode="layer"
     id="layer1"
     transform="translate(-174.2046,-340.00073)">
    <path
       id="path287"
       clip-path="url(#clipPath288)"
       style="display:inline;fill:none;fill-opacity:1;fill-rule:nonzero;stroke:#231f20;stroke-width:2.02994;stroke-linecap:butt;stroke-linejoin:miter;stroke-miterlimit:10;stroke-dasharray:none;stroke-opacity:1"
       d="m 42.426358,106.15403 c -0.59147,-0.0755 -0.517892,-0.29593 -0.694979,-0.8537 C 41.377203,104.1848 39.747542,98.864143 38.863542,96.330146 38.036543,93.962148 37.190276,91.599429 36.255277,89.273432 35.229278,86.720434 34.110084,84.20483 32.998085,81.686833 31.561086,78.433836 30.22713,75.125077 28.602131,71.96808 26.554133,67.989084 24.348506,64.080539 22.037508,60.247542 19.77151,56.492546 17.370008,52.813281 14.870011,49.208284 13.061012,46.600287 11.055671,44.120148 9.0296727,41.672151 6.691675,38.849154 4.3245602,36.040242 1.8035628,33.383245 -0.7254347,30.718248 -3.4355291,28.220124 -6.1175264,25.704127 -7.0925254,24.790128 -8.212054,24.0301 -9.2700529,23.2061 c -2.3559981,-1.836998 -4.6629541,-3.738679 -7.0879511,-5.479677 -1.985998,-1.424999 -4.195337,-2.545572 -6.154335,-4.003571 -1.834998,-1.363998 -3.847646,-2.384141 -5.869644,-3.36014 -2.468998,-1.1929985 -5.071722,-2.110718 -7.59872,-3.1877169 -0.335999,-0.1429999 -0.568722,-0.5306606 -1.025722,-0.9756602 1.105999,-0.7739992 2.081503,-1.3781002 2.972502,-2.0900995 3.318996,-2.6549973 7.131831,-4.19425901 11.257827,-5.0002582 1.676998,-0.3279997 3.379374,-0.5409507 5.078373,-0.7359505 1.017999,-0.1169999 2.054355,-0.1125739 3.081354,-0.1345739 1.402998,-0.029 2.82837,-0.2004106 4.203368,-0.00841 2.7819974,0.3879996 5.5340748,0.98231242 8.302072,1.48031192 0.5819994,0.1049999 1.17305854,0.16417491 2.11005760239,0.29017478554 C -1.8448696,-4.0034673 -4.3779483,-7.1622472 -6.7999458,-10.353244 -17.948935,-25.038229 -31.918,-35.951879 -49.850982,-41.809873 c 0.56,-0.603999 0.831934,-1.018451 1.209934,-1.278451 1.401999,-0.961999 2.770543,-1.99738 4.274541,-2.771379 2.068998,-1.063999 4.191161,-2.10164 6.397159,-2.81764 3.445996,-1.119998 7.01733,-1.801459 10.663327,-1.749459 2.376997,0.034 4.768446,0.179652 7.121444,0.504652 2.029998,0.279999 4.017721,0.884052 6.409719,1.434052 -1.131999,-1.708998 -2.061623,-3.120046 -2.997622,-4.525045 -2.265998,-3.402996 -4.513823,-6.815969 -6.815821,-10.193966 -0.651999,-0.957999 -1.479164,-1.797299 -2.202163,-2.708298 -2.053998,-2.587997 -4.03771,-5.235229 -6.162708,-7.763227 -1.370999,-1.630998 -3.156462,-2.945441 -4.36246,-4.67644 -1.137999,-1.633998 -2.61636,-2.891514 -3.956358,-4.268513 -2.254998,-2.316997 -4.829232,-4.319367 -7.25123,-6.476364 -0.732999,-0.653 -1.351432,-1.443046 -2.118431,-2.048046 -1.807998,-1.426998 -3.640343,-2.833967 -5.526341,-4.154966 -2.954997,-2.070998 -5.884934,-4.194618 -8.971931,-6.051617 -2.667998,-1.605 -5.521381,-2.90951 -8.331379,-4.26851 -1.363998,-0.659 -2.818489,-1.132 -4.228488,-1.699 -1.010999,-0.406 -1.202154,-1.11692 -0.452155,-1.79992 0.988999,-0.902 2.005929,-1.77501 3.026928,-2.64101 1.788998,-1.518 3.876245,-2.48948 5.995243,-3.46948 3.140996,-1.452 6.391259,-2.32043 9.809255,-2.64943 4.438996,-0.428 8.87353,-0.50185 13.292526,0.26915 0.707999,0.123 1.443217,0.0862 2.248216,0.12617 -0.712999,-1.128 -1.280766,-2.20729 -2.013765,-3.15828 -2.500998,-3.245 -5.022095,-6.47447 -7.607093,-9.65147 -2.666997,-3.278 -5.373356,-6.52534 -8.151353,-9.71034 -1.240999,-1.423 -2.692025,-2.66514 -4.061024,-3.97413 -1.185999,-1.133 -2.396936,-2.24056 -3.587935,-3.36856 -1.817998,-1.71999 -3.544544,-3.55044 -5.463542,-5.14744 -2.587997,-2.154 -5.324451,-4.1332 -7.996448,-6.18619 -0.097,-0.075 -0.184691,-0.1561 -0.284691,-0.2271 -2.938997,-2.07999 -5.861402,-4.18004 -8.825399,-6.22404 -1.151999,-0.79499 -2.401496,-1.45882 -3.600495,-2.18682 -3.674997,-2.229 -7.635268,-3.8634 -11.559268,-5.5764 -0.574,-0.251 -1.08822,-0.63767 -1.93422,-1.13967 1.444,-1.059 2.54753,-2.00874 3.78052,-2.73774 2.106,-1.248 4.292405,-2.35915 6.447402,-3.52415 2.698998,-1.459 5.51898,-2.57713 8.456977,-3.50313 5.571995,-1.75699 11.254625,-2.53585 17.018619,-1.90085 4.791996,0.529 9.610295,1.22731 14.117291,3.1793 0.675999,0.292 1.383949,0.82138 2.331948,0.29438 -0.236,-0.41199 -0.414927,-0.78585 -0.648926,-1.12285 -1.840999,-2.65599 -3.775157,-5.25329 -5.522155,-7.96929 -2.509998,-3.90299 -5.701639,-7.15412 -9.189636,-10.15612 -1.065999,-0.91699 -2.123767,-1.84835 -3.202766,-2.75035 -0.697999,-0.583 -1.410924,-1.15197 -2.151924,-1.67797 -1.492998,-1.06199 -2.978553,-2.13543 -4.521552,-3.12043 -2.315997,-1.47699 -4.615714,-2.99513 -7.037711,-4.28112 -2.042998,-1.085 -4.243788,-1.88759 -6.388786,-2.77559 -4.560995,-1.889 -9.072431,-3.93811 -14.075421,-4.42411 -0.241,-0.024 -0.47454,-0.11645 -0.70754,-0.19345 -2.75,-0.915 -5.59054,-1.30737 -8.46954,-1.52237 -0.601,-0.045 -1.17809,-0.38084 -1.97608,-0.65184 2.66499,-2.896 5.01657,-5.58974 7.70757,-7.99873 3.83699,-3.435 7.69062,-6.79198 12.262614,-9.27298 4.681995,-2.542 9.568647,-4.39482 14.820642,-5.27782 1.508999,-0.254 3.030114,-0.71245 4.534112,-0.66445 4.522996,0.144 9.01609,0.62229 13.305085,2.23729 1.148999,0.43299 2.313525,0.82401 3.466524,1.24901 2.650997,0.977 5.222376,2.13523 7.456374,3.89423 1.665998,1.312 3.24723,2.7363 4.873228,4.10029 0.069,0.057 0.225289,0.004 0.410289,0.004 0.27,-0.656 0.574578,-1.32099 0.820578,-2.00599 1.912998,-5.311 4.77634,-10.03821 8.532336,-14.25221 2.950997,-3.311 6.252362,-6.20998 10.215358,-8.18797 3.216997,-1.606 6.50995,-3.11754 10.093946,-3.81854 0.947999,-0.185 1.891665,-0.78051 2.796664,-0.70651 1.723998,0.143 2.636485,-0.70543 3.353484,-2.03543 0.811999,-1.505 1.604055,-3.02084 2.424054,-4.52084 1.731999,-3.16399 3.5129735,-6.30145 5.2039718,-9.48745 1.1169988,-2.102 2.0596473,-4.29446 3.1776462,-6.39646 1.3769986,-2.591 2.8649159,-5.12174 4.28291451,-7.69174 0.67699933,-1.228 1.31377999,-2.48242 1.94677929,-3.73442 0.3459997,-0.686 0.8667835,-0.9214 1.6327827,-0.9294 3.8959961,-0.038 7.7930535,-0.13125 11.6890495,-0.18925 2.367997,-0.036 4.733513,-0.0549 7.100511,-0.0589 2.610997,-0.005 5.226986,-0.0973 7.828983,0.0547 1.060046,0.062 2.338312,0.0756 3.571189,0.0925 v 205.29235 h 26.333854 v -205.42272 c 0.137785,-0.002 0.314649,-0.0169 0.447968,-0.0168 1.797999,5e-4 3.165631,0.27856 4.74763,0.27756 3.220997,-0.004 6.441727,-0.15701 9.662724,-0.16401 2.916997,-0.006 5.833043,0.11439 8.75004,0.15139 1.703999,0.022 3.439494,0.1883 5.103493,-0.0757 1.795998,-0.286 3.513079,-0.26341 5.296077,-0.008 0.940999,0.135 1.403128,0.5463 1.775128,1.3163 1.592998,3.307 3.21843,6.5968 4.810431,9.90379 0.449,0.931 0.79724,1.90788 1.23924,2.84288 2.063,4.36899 4.14513,8.72971 6.21713,13.09571 1.024,2.159 2.0278,4.32957 3.0688,6.48057 0.256,0.529 0.45568,1.08778 1.22668,1.22378 4.00099,0.702 7.84897,1.95069 11.46297,3.78068 2.558,1.295 5.21808,2.60035 7.36008,4.44935 2.611,2.253 5.03651,4.77266 7.10051,7.62865 2.609,3.608 4.77287,7.40456 6.30087,11.57756 0.138,0.377 0.32938,0.73683 0.56938,1.26583 2.106,-1.493 4.06886,-2.90113 6.05385,-4.28113 0.649,-0.451 1.38114,-0.78381 2.02214,-1.24481 3.292,-2.37199 7.13184,-3.62627 10.94383,-4.55027 3.132,-0.759 6.44633,-1.37502 9.78832,-0.94202 1.204,0.156 2.47411,-0.14451 3.65911,0.0715 3.416,0.622 6.83053,1.28451 10.03952,2.71251 3.853,1.71499 7.77955,3.29674 11.09455,5.99274 2.797,2.27699 5.6307,4.52037 8.2937,6.94737 1.986,1.811 3.73702,3.88458 5.56402,5.86658 0.38,0.413 0.63384,0.93883 1.05084,1.57283 -0.657,0.143 -1.00684,0.24838 -1.36484,0.29438 -1.64099,0.207 -3.29946,0.3152 -4.92346,0.6182 -2.031,0.379 -4.0543,0.8312 -6.0413,1.3962 -3.177,0.902 -6.35695,1.82198 -9.46595,2.92698 -2.301,0.818 -4.54372,1.84742 -6.72372,2.95642 -3.21099,1.634 -6.48614,3.20391 -9.47014,5.19791 -3.84899,2.573 -7.59187,5.29672 -11.05687,8.44871 -3.93699,3.582 -7.35366,7.50082 -10.24466,11.93081 -1.031,1.581 -2.12746,3.11806 -3.17346,4.68906 -0.425,0.64 -0.79081,1.31555 -1.18481,1.97655 0.08,0.116 0.15863,0.23305 0.23863,0.34905 3.417,-1.30099 6.83812,-2.51314 10.47912,-3.05314 3.701,-0.55 7.42786,-1.06055 11.12385,-0.89155 3.624,0.166 7.26268,0.7269 10.80568,1.7789 3.59499,1.069 6.90528,2.73548 10.30327,4.24748 3.346,1.49 6.30915,3.46942 9.15615,6.04741 -1.685,0.725 -3.10613,1.2685 -4.46713,1.9345 -2.849,1.392 -5.7121,2.76837 -8.4821,4.30636 -2.08099,1.156 -3.93385,2.73972 -6.05385,3.80171 -3.198,1.601 -5.80523,4.0169 -8.75423,5.9549 -2.685,1.76399 -5.0368,4.0419 -7.5108,6.1189 -0.557,0.468 -0.9893,1.08163 -1.5323,1.56862 -1.764,1.582 -3.59502,3.0883 -5.31701,4.71429 -1.511,1.426 -2.95209,2.93758 -4.35409,4.47458 -2.302,2.524 -4.60526,5.05051 -6.80326,7.6665 -2.424,2.885 -4.70514,5.88818 -7.09214,8.80618 -1.393,1.704 -2.17012,3.85567 -3.90612,5.31566 -0.28,0.235 -0.34001,0.72981 -0.56101,1.24481 0.512,0.035 0.86075,0.0947 1.20575,0.0757 2.691,-0.141 5.38081,-0.31357 8.07181,-0.44157 0.854,-0.041 1.71359,0.0171 2.57059,0.0421 1.02299,0.029 2.0496,0.0162 3.0646,0.12617 0.662,0.072 1.29834,0.37424 1.95934,0.49624 3.241,0.598 6.40167,1.26919 9.36966,2.93118 2.038,1.142 4.07734,2.23725 5.84034,3.75125 0.932,0.8 2.03569,1.52003 2.66269,2.96903 -0.978,0.44 -1.83749,0.86037 -2.72549,1.21537 -0.968,0.388 -2.07426,0.54162 -2.92226,1.09762 -3.021,1.984 -6.45933,3.15874 -9.47433,5.21474 -3.64199,2.482993 -7.46373,4.695543 -10.85172,7.54454 -2.385,2.005998 -4.7917,3.997262 -7.1047,6.08526 -4.411,3.981996 -8.76798,8.006366 -12.33798,12.822361 -1.93099,2.602997 -4.18937,4.960233 -6.26737,7.45623 -0.934,1.121999 -1.85706,2.267893 -2.67106,3.477892 -1.671,2.485998 -3.23054,5.044931 -4.90254,7.531928 -1.33,1.977998 -2.77101,3.884552 -4.12801,5.84555 -0.201,0.291 -0.20949,0.709576 -0.34749,1.219575 0.642,-0.168 1.06032,-0.256694 1.46532,-0.382694 5.207,-1.617998 10.51373,-2.081175 15.92172,-1.375176 6.021,0.785999 11.36799,3.305519 16.46599,6.438516 0.742,0.454999 1.3148,1.191115 2.1268,1.947114 -0.6,0.28 -0.90624,0.490528 -1.23924,0.563528 -3.49599,0.764 -6.74624,2.182383 -9.87624,3.856381 -2.576,1.376999 -5.26584,2.537213 -7.62384,4.344211 -2.075,1.589998 -4.4172,2.828883 -6.51019,4.398882 -2.192,1.643998 -4.31462,3.406818 -6.31762,5.277816 -3.62299,3.383997 -7.00103,7.004564 -10.00602,10.963561 -1.514,1.994998 -3.16041,3.8920438 -4.630409,5.9170418 -1.364999,1.8789981 -2.578507,3.8681139 -3.847506,5.81611198 -0.056,0.0849999 -0.0084,0.23880314 -0.0084,0.46680291 0.234,0 0.471793,0.0417945 0.690793,-0.004205 1.375998,-0.28999971 2.734824,-0.76831902 4.123823,-0.86631899 1.996999,-0.1409998 3.915309,-0.8741982 5.974309,-0.6181984 1.376,0.1709998 2.79481,-0.034384 4.19081,0.012616 1.93799,0.064 3.91166,0.00767 5.80265,0.3616671 3.051,0.57199947 6.06783,1.23299733 8.87983,2.7839958 1.924,1.0599989 3.82794,2.1387302 5.65194,3.351729 0.525,0.3479996 0.88379,0.9458472 1.31879,1.4298467 -0.564,0.4179996 -1.07577,1.0821645 -1.69977,1.2111643 -2.344,0.4819996 -4.24012,1.859187 -6.28412,2.9311858 -2.065,1.081999 -4.02647,2.36199 -6.11247,3.397989 -3.54,1.758998 -6.73851,4.010778 -9.79251,6.484775 -1.899,1.536999 -3.77982,3.095264 -5.62682,4.693262 -1.802995,1.560998 -3.654449,3.087605 -5.304448,4.802603 -3.612996,3.756996 -7.239277,7.515832 -10.617273,11.480828 -2.440998,2.864997 -4.502971,6.053379 -6.706969,9.117376 -0.927999,1.290999 -1.782253,2.632902 -2.675252,3.9489 -1.438998,2.123998 -2.965849,4.197848 -4.303847,6.383846 -1.529999,2.501997 -3.012849,5.044915 -4.303848,7.674912 -2.568997,5.227995 -5.046003,10.502223 -7.448001,15.808218 -0.876999,1.938998 -1.383924,4.041796 -2.151924,6.034794 -0.919999,2.386998 -1.993143,4.718388 -2.897142,7.111385 -0.691,1.830998 -2.075117,7.195998 -2.449174,8.036578 -0.374059,0.84055 0.07026,0.7008 -5.593327,0.7696 -2.831795,0.0344 -4.089174,0.10498 -4.680644,0.0294 z"
       transform="matrix(0.12343228,0,0,-0.12288021,189.19011,353.17489)" />
    <path
       id="path287-4"
       clip-path="url(#clipPath288-2)"
       style="display:inline;fill:none;fill-opacity:1;fill-rule:nonzero;stroke:#231f20;stroke-width:2.02994;stroke-linecap:butt;stroke-linejoin:miter;stroke-miterlimit:10;stroke-dasharray:none;stroke-opacity:1"
       d="M 60.236222,84.093935 V -99.288117 H 33.902368 V 83.79535 C 33.594401,83.095566 33.306864,82.387685 32.998058,81.688429 31.561059,78.435432 30.227103,75.126673 28.602104,71.969676 26.554106,67.99068 24.348479,64.082134 22.037481,60.249138 19.771483,56.494142 17.369981,52.814876 14.869984,49.20988 13.060985,46.601883 11.055644,44.121744 9.0296457,41.673746 6.691648,38.850749 4.3245332,36.041838 1.8035358,33.384841 -0.72546171,30.719843 -3.4355561,28.22172 -6.1175534,25.705723 c -0.9749991,-0.914 -2.0945276,-1.674028 -3.1525265,-2.498027 -2.3559981,-1.836998 -4.6629541,-3.738679 -7.0879511,-5.479677 -1.985998,-1.424999 -4.195337,-2.545573 -6.154335,-4.003571 -1.834998,-1.363999 -3.847646,-2.388346 -5.869644,-3.364346 -2.468998,-1.1929983 -5.071722,-2.1107178 -7.59872,-3.1877167 -0.335999,-0.1429999 -0.568722,-0.5264552 -1.025722,-0.9714547 1.105999,-0.7739992 2.081503,-1.3823057 2.972502,-2.094305 3.318996,-2.6549973 7.131831,-4.19005355 11.257827,-4.99605275 1.676998,-0.32799965 3.379374,-0.54095075 5.078373,-0.73595055 1.017999,-0.1169999 2.054355,-0.1125738 3.081354,-0.1345738 1.402998,-0.029 2.82837,-0.2004107 4.203368,-0.00841 2.7819974,0.3879997 5.5340748,0.98231247 8.302072,1.48031198 0.5819994,0.10499989 1.17305853,0.15996947 2.11005759703,0.28596935 C -1.8448966,-4.0060771 -4.3779753,-7.1606515 -6.7999728,-10.351648 -17.948962,-25.036634 -31.918027,-35.950283 -49.851009,-41.808277 c 0.56,-0.603999 0.831934,-1.022657 1.209934,-1.282657 1.401999,-0.961999 2.770543,-1.99738 4.274541,-2.771379 2.068998,-1.063999 4.191161,-2.097435 6.397159,-2.813434 3.445996,-1.119999 7.01733,-1.805665 10.663327,-1.753665 2.376997,0.034 4.768446,0.183858 7.121444,0.508857 2.029998,0.28 4.017721,0.879848 6.409719,1.429847 -1.131999,-1.708998 -2.061623,-3.11584 -2.997622,-4.520839 -2.265998,-3.402996 -4.513823,-6.820175 -6.815821,-10.198172 -0.651999,-0.957999 -1.479164,-1.793093 -2.202163,-2.704092 -2.053998,-2.587998 -4.03771,-5.235229 -6.162708,-7.763227 -1.370999,-1.630998 -3.156462,-2.949647 -4.36246,-4.680645 -1.137999,-1.633999 -2.61636,-2.887309 -3.956358,-4.264308 -2.254998,-2.316998 -4.829232,-4.323572 -7.25123,-6.48057 -0.732999,-0.653 -1.351432,-1.438841 -2.118431,-2.04384 -1.807998,-1.426999 -3.640343,-2.833968 -5.526341,-4.154966 -2.954997,-2.070998 -5.884935,-4.194618 -8.971931,-6.051613 -2.667998,-1.605 -5.521381,-2.90952 -8.331379,-4.26852 -1.363998,-0.659 -2.818489,-1.13199 -4.228488,-1.69899 -1.010999,-0.406 -1.202154,-1.12113 -0.452155,-1.80413 0.988999,-0.902 2.005929,-1.77081 3.026928,-2.63681 1.788998,-1.518 3.876245,-2.48948 5.995243,-3.46948 3.140996,-1.452 6.391259,-2.32042 9.809255,-2.64942 4.438996,-0.428 8.87353,-0.50185 13.292526,0.26915 0.707999,0.123 1.443217,0.082 2.248216,0.12196 -0.712999,-1.128 -1.280766,-2.20308 -2.013765,-3.15408 -2.500998,-3.245 -5.022095,-6.47447 -7.607093,-9.65146 -2.666997,-3.278 -5.373356,-6.52955 -8.151353,-9.71455 -1.240999,-1.423 -2.692025,-2.66514 -4.061024,-3.97413 -1.185999,-1.133 -2.396936,-2.24056 -3.587935,-3.36855 -1.817998,-1.72 -3.544544,-3.54625 -5.463542,-5.14325 -2.587997,-2.154 -5.324451,-4.13319 -7.996448,-6.18619 -0.097,-0.075 -0.184691,-0.1603 -0.284691,-0.2313 -2.938997,-2.07999 -5.861402,-4.18004 -8.825399,-6.22404 -1.151999,-0.79499 -2.401496,-1.45461 -3.600495,-2.18261 -3.674997,-2.229 -7.635271,-3.86761 -11.559261,-5.58061 -0.574,-0.251 -1.08822,-0.63347 -1.93422,-1.13547 1.444,-1.059 2.54752,-2.00874 3.78052,-2.73773 2.106,-1.248 4.292398,-2.35916 6.447395,-3.52416 2.698998,-1.45899 5.51898,-2.57712 8.456977,-3.50312 5.571995,-1.757 11.254625,-2.53586 17.018619,-1.90086 4.791996,0.529 9.610295,1.22731 14.11729,3.17931 0.676,0.292 1.38395,0.81717 2.331949,0.29018 -0.236,-0.412 -0.414927,-0.78586 -0.648926,-1.12286 -1.840999,-2.65599 -3.775157,-5.25329 -5.522155,-7.96929 -2.509998,-3.90299 -5.701639,-7.15412 -9.189636,-10.15612 -1.065999,-0.91699 -2.123767,-1.84835 -3.202766,-2.75035 -0.697999,-0.583 -1.410924,-1.15197 -2.151924,-1.67796 -1.492998,-1.062 -2.978553,-2.13544 -4.521552,-3.12044 -2.315997,-1.47699 -4.615714,-2.99513 -7.037711,-4.28112 -2.042998,-1.085 -4.243788,-1.88338 -6.388786,-2.77138 -4.560995,-1.889 -9.072424,-3.93812 -14.075424,-4.42412 -0.241,-0.024 -0.47454,-0.11645 -0.70754,-0.19345 -2.75,-0.915 -5.59054,-1.31157 -8.46954,-1.52657 -0.60099,-0.045 -1.17808,-0.37664 -1.97608,-0.64764 2.665,-2.89599 5.01657,-5.58973 7.70757,-7.99873 3.837,-3.43499 7.69062,-6.79198 12.262617,-9.27297 4.681995,-2.542 9.568647,-4.39482 14.820642,-5.27782 1.508999,-0.254 3.030114,-0.71246 4.534112,-0.66446 4.522996,0.144 9.01609,0.62229 13.305085,2.23729 1.148999,0.433 2.313525,0.82401 3.466524,1.24901 2.650997,0.977 5.222376,2.13103 7.456374,3.89003 1.665998,1.312 3.24723,2.7363 4.873228,4.10029 0.069,0.057 0.225289,0.008 0.410289,0.008 0.27,-0.65599 0.574578,-1.32099 0.820578,-2.00599 1.912998,-5.31099 4.77634,-10.03821 8.532336,-14.2522 2.950997,-3.311 6.252362,-6.20998 10.215358,-8.18798 3.216997,-1.606 6.50995,-3.11753 10.093946,-3.81853 0.947999,-0.185 1.891665,-0.78472 2.796664,-0.71072 1.723998,0.143 2.636485,-0.70122 3.353484,-2.03122 0.811999,-1.505 1.604055,-3.02084 2.424054,-4.52084 1.731999,-3.164 3.5129734,-6.30146 5.2039718,-9.48746 1.1169988,-2.10199 2.0596473,-4.29866 3.1776462,-6.40066 1.3769986,-2.591 2.8649159,-5.12174 4.28291451,-7.69174 0.67699932,-1.228 1.31377999,-2.47822 1.94677929,-3.73021 0.3459997,-0.686 0.8667834,-0.9214 1.6327827,-0.9294 3.8959961,-0.038 7.7930535,-0.13125 11.6890495,-0.18925 2.367997,-0.036 4.733513,-0.0549 7.100511,-0.0589 2.610997,-0.005 5.226986,-0.0973 7.828983,0.0547 2.989997,0.17499 7.457,0.17606 8.950999,-0.0294 1.493998,-0.2055 11.943081,0.0696 12.430081,0.10513 0.486999,0.0355 1.958817,0.12673 2.934822,0.10093 2.013992,-0.0532 4.239111,-0.2318 6.037109,-0.2313 1.797999,5e-4 3.165631,0.27856 4.74763,0.27756 3.220997,-0.004 6.441727,-0.16121 9.662724,-0.16821 2.916997,-0.006 5.833043,0.1186 8.75004,0.1556 1.703999,0.022 3.439494,0.1883 5.103493,-0.0757 1.795998,-0.286 3.513079,-0.26762 5.296077,-0.0126 0.940999,0.135 1.403128,0.5463 1.775128,1.3163 1.592998,3.307 3.21843,6.601 4.810428,9.908 0.449,0.931 0.79724,1.90787 1.23924,2.84287 2.063,4.369 4.14514,8.72972 6.21713,13.09572 1.024,2.15899 2.0278,4.32957 3.0688,6.48057 0.256,0.529 0.45568,1.08778 1.22668,1.22378 4.001,0.702 7.84897,1.95068 11.46297,3.78068 2.558,1.295 5.21808,2.60035 7.36008,4.44935 2.611,2.25299 5.03652,4.76845 7.10051,7.62444 2.609,3.608 4.77287,7.40877 6.30087,11.58176 0.138,0.377 0.32938,0.73263 0.56938,1.26163 2.106,-1.493 4.06886,-2.90113 6.05386,-4.28113 0.649,-0.451 1.38114,-0.7796 2.02213,-1.2406 3.292,-2.372 7.13184,-3.63048 10.94384,-4.55448 3.13199,-0.759 6.44632,-1.37081 9.78832,-0.93781 1.204,0.156 2.47411,-0.14872 3.65911,0.0673 3.41599,0.622 6.83052,1.28451 10.03952,2.71251 3.85299,1.715 7.77955,3.30094 11.09454,5.99694 2.797,2.277 5.63071,4.52038 8.2937,6.94738 1.986,1.81099 3.73703,3.88037 5.56402,5.86237 0.38,0.413 0.63385,0.94303 1.05085,1.57703 -0.657,0.143 -1.00684,0.24418 -1.36484,0.29018 -1.641,0.207 -3.29947,0.3152 -4.92347,0.6182 -2.031,0.379 -4.0543,0.83541 -6.0413,1.40041 -3.17699,0.90199 -6.35695,1.82198 -9.46595,2.92698 -2.301,0.818 -4.54372,1.84321 -6.72371,2.95221 -3.211,1.634 -6.48615,3.20391 -9.47014,5.19791 -3.849,2.573 -7.59188,5.30092 -11.05687,8.45292 -3.937,3.582 -7.35367,7.50081 -10.24467,11.93081 -1.031,1.581 -2.12746,3.11385 -3.17346,4.68485 -0.425,0.64 -0.79081,1.31976 -1.18481,1.98076 0.08,0.116 0.15864,0.23305 0.23864,0.34905 3.41699,-1.301 6.83812,-2.51314 10.47911,-3.05314 3.701,-0.55 7.42786,-1.06055 11.12386,-0.89155 3.62399,0.16599 7.26267,0.72269 10.80567,1.77469 3.595,1.069 6.90528,2.73969 10.30328,4.25169 3.34599,1.49 6.30914,3.46941 9.15614,6.04741 -1.685,0.725 -3.10613,1.2685 -4.46713,1.9345 -2.84899,1.392 -5.7121,2.76836 -8.48209,4.30636 -2.081,1.156 -3.93386,2.73971 -6.05386,3.80171 -3.198,1.601 -5.80523,4.01689 -8.75423,5.95489 -2.68499,1.764 -5.0368,4.04191 -7.5108,6.1189 -0.557,0.468 -0.9893,1.07743 -1.5323,1.56442 -1.764,1.582 -3.59501,3.0925 -5.31701,4.7185 -1.511,1.426 -2.95209,2.93337 -4.35409,4.47037 -2.302,2.524 -4.60526,5.05051 -6.80326,7.6665 -2.424,2.885 -4.70514,5.89239 -7.09214,8.81038 -1.393,1.704 -2.17012,3.85147 -3.90612,5.31146 -0.27999,0.235 -0.34,0.72981 -0.561,1.24481 0.512,0.035 0.86075,0.0989 1.20574,0.0799 2.691,-0.141 5.38082,-0.31358 8.07181,-0.44158 0.854,-0.041 1.71359,0.0171 2.57059,0.0421 1.023,0.029 2.04961,0.0162 3.06461,0.12616 0.662,0.072 1.29834,0.37424 1.95934,0.49624 3.24099,0.598 6.40166,1.26499 9.36966,2.92698 2.03799,1.142 4.07734,2.23725 5.84033,3.75125 0.932,0.8 2.0357,1.52424 2.6627,2.97324 -0.978,0.44 -1.8375,0.86037 -2.7255,1.21537 -0.96799,0.388 -2.07426,0.54162 -2.92226,1.09762 -3.021,1.98399 -6.45933,3.15873 -9.47432,5.21473 -3.642,2.482999 -7.46373,4.695549 -10.85173,7.544546 -2.385,2.005998 -4.7917,3.997261 -7.1047,6.085259 -4.41099,3.981996 -8.76798,8.002161 -12.33797,12.818156 -1.931,2.602997 -4.18938,4.964438 -6.26738,7.460436 -0.93399,1.121999 -1.85706,2.263687 -2.67106,3.473686 -1.671,2.485998 -3.23054,5.049136 -4.90254,7.536134 -1.32999,1.977998 -2.77101,3.880346 -4.128,5.841344 -0.201,0.291 -0.20949,0.713781 -0.34749,1.223781 0.64199,-0.168 1.06031,-0.256695 1.46531,-0.382694 5.207,-1.617999 10.51373,-2.081176 15.92173,-1.375177 6.02099,0.786 11.36799,3.305519 16.46598,6.438516 0.742,0.455 1.31481,1.18691 2.12681,1.94291 -0.6,0.279999 -0.90624,0.494733 -1.23924,0.567733 -3.496,0.763999 -6.74625,2.178177 -9.87625,3.852175 -2.57599,1.376999 -5.26584,2.537213 -7.62383,4.344211 -2.075,1.589999 -4.4172,2.833089 -6.5102,4.403087 -2.192,1.643999 -4.31462,3.406819 -6.31761,5.277817 -3.623,3.383996 -7.00103,7.004564 -10.00603,10.96356 -1.514,1.994998 -3.160407,3.8920445 -4.630406,5.9170425 -1.364999,1.8789981 -2.578507,3.8681139 -3.847506,5.81611193 -0.056,0.0849999 -0.0084,0.23880314 -0.0084,0.46680292 0.234,0 0.471793,0.0375891 0.690793,-0.008411 1.375998,-0.28999971 2.734824,-0.76411358 4.123823,-0.86211345 1.996996,-0.1409999 3.915306,-0.8784036 5.974306,-0.6224039 1.376,0.1709998 2.79481,-0.030178 4.19081,0.016822 1.938,0.064 3.91166,0.00346 5.80266,0.3574617 3.05099,0.57199943 6.06783,1.23720273 8.87982,2.7882012 1.924,1.0599989 3.82795,2.1387302 5.65194,3.351729 0.525,0.3479997 0.88379,0.9458473 1.31879,1.4298468 -0.564,0.4179996 -1.07577,1.0821644 -1.69977,1.2111643 -2.344,0.4819995 -4.24012,1.8591869 -6.28412,2.931186 -2.065,1.081999 -4.02647,2.361989 -6.11247,3.397988 -3.53999,1.758999 -6.73851,4.006573 -9.79251,6.480571 -1.899,1.536998 -3.77982,3.095263 -5.62682,4.693261 -1.802992,1.560999 -3.654446,3.087605 -5.304445,4.802603 -3.612996,3.756996 -7.239277,7.520038 -10.617273,11.485034 -2.440998,2.864997 -4.502971,6.053379 -6.706969,9.117376 -0.927999,1.290999 -1.782253,2.632901 -2.675252,3.9489 -1.438998,2.123998 -2.965849,4.193642 -4.303847,6.37964 -1.529999,2.501997 -3.012849,5.044915 -4.303848,7.674913 -2.556013,5.201571 -5.019719,10.453645 -7.410321,15.732519 z"
       transform="matrix(-0.12343228,0,0,0.12288021,232.55983,378.05185)" />
  </g>
</svg>
