<?xml version="1.0" encoding="UTF-8" standalone="no"?>
<!-- Created with Inkscape (http://www.inkscape.org/) -->

<svg
   width="390mm"
   height="390mm"
   viewBox="0 0 390 390"
   version="1.1"
   id="svg1"
   sodipodi:docname="2-part-tree-template-bottom.svg"
   inkscape:version="1.3 (0e150ed, 2023-07-21)"
   xmlns:inkscape="http://www.inkscape.org/namespaces/inkscape"
   xmlns:sodipodi="http://sodipodi.sourceforge.net/DTD/sodipodi-0.dtd"
   xmlns="http://www.w3.org/2000/svg"
   xmlns:svg="http://www.w3.org/2000/svg">
  <sodipodi:namedview
     id="namedview1"
     pagecolor="#ffffff"
     bordercolor="#000000"
     borderopacity="0.25"
     inkscape:showpageshadow="2"
     inkscape:pageopacity="0.0"
     inkscape:pagecheckerboard="0"
     inkscape:deskcolor="#d1d1d1"
     inkscape:document-units="mm"
     inkscape:zoom="0.1922995"
     inkscape:cx="621.42647"
     inkscape:cy="743.63168"
     inkscape:window-width="1408"
     inkscape:window-height="769"
     inkscape:window-x="0"
     inkscape:window-y="25"
     inkscape:window-maximized="0"
     inkscape:current-layer="layer1" />
  <defs
     id="defs1">
    <clipPath
       clipPathUnits="userSpaceOnUse"
       id="clipPath288">
      <path
         d="M 0,792 H 612 V 0 H 0 Z"
         transform="translate(-356.41601,-313.15181)"
         id="path288" />
    </clipPath>
  </defs>
  <g
     inkscape:label="Layer 1"
     inkscape:groupmode="layer"
     id="layer1">
    <path
       id="path287"
       clip-path="url(#clipPath288)"
       style="display:inline;fill:none;fill-opacity:1;fill-rule:nonzero;stroke:#231f20;stroke-width:0.222255;stroke-linecap:butt;stroke-linejoin:miter;stroke-miterlimit:10;stroke-dasharray:none;stroke-opacity:1"
       d="m 42.427854,106.15621 c -0.59147,-0.0755 -0.519697,-0.29934 -0.696785,-0.85711 C 41.376893,104.18357 39.748,98.866108 38.864001,96.332111 38.037002,93.964113 37.190993,91.599988 36.255994,89.27399 35.229995,86.720993 34.108808,84.204931 32.996809,81.686933 31.55981,78.433937 30.226232,75.126085 28.601234,71.969088 26.553236,67.990092 24.350135,64.081804 22.039137,60.248808 19.77314,56.493812 17.370055,52.813854 14.870057,49.208858 13.061059,46.60086 11.056133,44.121047 9.0301348,41.673049 6.6921371,38.850052 4.3261027,36.040093 1.8051053,33.383095 -0.7238922,30.718098 -3.435182,28.220824 -6.1171793,25.704826 c -0.974999,-0.913999 -2.0958696,-1.673048 -3.1538686,-2.497047 -2.3559981,-1.836998 -4.6627441,-3.740659 -7.0877411,-5.481657 -1.985998,-1.424999 -4.196406,-2.544048 -6.155404,-4.002047 -1.834998,-1.363998 -3.845664,-2.387093 -5.867662,-3.363092 -2.468998,-1.1929985 -5.069933,-2.1097809 -7.59693,-3.1867798 -0.336,-0.1429999 -0.569371,-0.5282425 -1.026371,-0.9732421 1.105999,-0.7739992 2.082326,-1.3811764 2.973325,-2.0931757 3.318997,-2.6549974 7.12976,-4.19185751 11.255756,-4.99785671 1.676999,-0.32799969 3.380197,-0.54174919 5.079196,-0.73674899 1.017999,-0.1169998 2.052113,-0.1134076 3.079112,-0.1354076 1.402998,-0.029 2.828749,-0.1985821 4.203747,-0.00658 2.7819976,0.3879996 5.5360619,0.98302109 8.3040592,1.48102059 0.5819994,0.10499989 1.17310258,0.16174126 2.11010164522,0.287741134555 C -1.8438573,-4.0040445 -4.375981,-7.1611503 -6.7979786,-10.352147 -17.946967,-25.037132 -31.918969,-35.95103 -49.851952,-41.809024 c 0.56,-0.603999 0.830796,-1.0212 1.208795,-1.2812 1.401999,-0.961999 2.774036,-1.996685 4.278034,-2.770684 2.068998,-1.063999 4.18825,-2.100291 6.394248,-2.81629 3.445996,-1.119999 7.019702,-1.802895 10.665698,-1.750895 2.376998,0.034 4.769066,0.180898 7.122064,0.505898 2.029998,0.279999 4.014944,0.883064 6.406942,1.433063 -1.131999,-1.708998 -2.061775,-3.117991 -2.997774,-4.52299 -2.265998,-3.402996 -4.513048,-6.818007 -6.815045,-10.196003 -0.652,-0.957999 -1.478785,-1.795743 -2.201784,-2.706742 -2.053998,-2.587997 -4.038399,-5.234901 -6.163397,-7.762898 -1.370998,-1.630999 -3.153843,-2.947146 -4.359842,-4.678145 -1.137999,-1.633998 -2.618793,-2.890221 -3.958792,-4.267219 -2.254997,-2.316998 -4.82842,-4.32188 -7.250418,-6.478878 -0.732999,-0.652999 -1.352976,-1.441159 -2.119975,-2.046159 -1.807998,-1.426998 -3.638914,-2.832911 -5.524912,-4.15391 -2.954997,-2.070998 -5.884697,-4.194029 -8.971694,-6.051024 -2.667997,-1.605 -5.521331,-2.91104 -8.331328,-4.27004 -1.363998,-0.659 -2.818668,-1.12983 -4.228666,-1.69683 -1.010999,-0.406 -1.203239,-1.12102 -0.453239,-1.80402 0.988999,-0.902 2.007805,-1.77304 3.028804,-2.63904 1.788998,-1.518 3.875139,-2.48982 5.994137,-3.46982 3.140997,-1.452 6.392942,-2.31803 9.810938,-2.64703 4.438996,-0.428 8.870226,-0.50395 13.289221,0.26705 0.708,0.123 1.444742,0.0846 2.249741,0.1246 -0.712999,-1.128 -1.281659,-2.20475 -2.014658,-3.15575 -2.500998,-3.245 -5.022276,-6.47503 -7.607274,-9.65203 -2.666997,-3.27799 -5.373728,-6.5272 -8.151725,-9.7122 -1.240999,-1.423 -2.692289,-2.66484 -4.061288,-3.97384 -1.185998,-1.133 -2.395892,-2.24073 -3.58689,-3.36873 -1.817999,-1.72 -3.543852,-3.54943 -5.46285,-5.14643 -2.587998,-2.154 -5.322223,-4.13061 -7.99422,-6.18361 -0.097,-0.075 -0.187742,-0.15938 -0.287741,-0.23038 -2.938998,-2.08 -5.861946,-4.18099 -8.825943,-6.22499 -1.151999,-0.795 -2.398235,-1.45498 -3.597234,-2.18298 -3.674996,-2.229 -7.635021,-3.86692 -11.559011,-5.57992 -0.574,-0.251 -1.09014,-0.6358 -1.93614,-1.1378 1.444,-1.059 2.54619,-2.00924 3.77919,-2.73824 2.10599,-1.248 4.293785,-2.35795 6.448783,-3.52295 2.698997,-1.459 5.519335,-2.57814 8.457332,-3.50414 5.571995,-1.757 11.255988,-2.53588 17.019983,-1.90088 4.791995,0.529 9.608776,1.22726 14.115771,3.17926 0.675999,0.292 1.38308,0.82085 2.331079,0.29385 -0.235999,-0.412 -0.415768,-0.78717 -0.649768,-1.12417 -1.840998,-2.65599 -3.774152,-5.25189 -5.521151,-7.96789 -2.509997,-3.90299 -5.703264,-7.15498 -9.19126,-10.15698 -1.065999,-0.91699 -2.120946,-1.84799 -3.199945,-2.74999 -0.697999,-0.583 -1.411887,-1.15202 -2.152887,-1.67802 -1.492998,-1.062 -2.979991,-2.13596 -4.522989,-3.12096 -2.315998,-1.477 -4.615907,-2.99486 -7.037904,-4.28085 -2.042998,-1.085 -4.239847,-1.88598 -6.384844,-2.77398 -4.560996,-1.889 -9.07328,-3.93637 -14.07628,-4.42237 -0.241,-0.024 -0.47601,-0.11765 -0.70901,-0.19465 -2.74999,-0.915 -5.58915,-1.30928 -8.46814,-1.52428 -0.601,-0.045 -1.18093,-0.37971 -1.97893,-0.65071 2.665,-2.89599 5.02018,-5.58898 7.71118,-7.99798 3.837,-3.43499 7.68709,-6.79113 12.25909,-9.27213 4.681995,-2.54199 9.569965,-4.39601 14.82196,-5.27901 1.508998,-0.254 3.031686,-0.71093 4.535684,-0.66293 4.522996,0.144 9.016211,0.62204 13.305207,2.23704 1.148999,0.433 2.313999,0.82376 3.466998,1.24876 2.650998,0.977 5.221883,2.13209 7.455881,3.89109 1.665998,1.312 3.244914,2.73678 4.870912,4.10078 0.069,0.057 0.227335,0.007 0.412335,0.007 0.27,-0.656 0.572088,-1.32072 0.818087,-2.00572 1.912999,-5.311 4.779854,-10.03813 8.535851,-14.25212 2.950997,-3.311 6.250874,-6.20993 10.21387,-8.18793 3.216997,-1.606 6.509981,-3.11909 10.093978,-3.82009 0.947999,-0.185 1.891073,-0.78301 2.796072,-0.70901 1.723999,0.143 2.63716,-0.70206 3.354159,-2.03206 0.812,-1.505 1.603703,-3.02111 2.423702,-4.52111 1.731999,-3.16399 3.5132612,-6.30193 5.2042595,-9.48793 1.1169989,-2.102 2.0589077,-4.29695 3.1769066,-6.39895 1.3769986,-2.591 2.8670876,-5.12097 4.28508617,-7.69096 0.67699933,-1.228 1.31113393,-2.48112 1.94413333,-3.73312 0.3459997,-0.68599 0.867825,-0.91963 1.6338243,-0.92763 3.8959961,-0.038 7.7918421,-0.13242 11.6878381,-0.19042 2.367998,-0.036 4.735319,-0.0548 7.102316,-0.0588 2.610998,-0.005 5.227665,-0.0979 7.829662,0.0541 2.989997,0.175 7.456068,0.17635 8.950066,-0.0292 0.711735,-0.0979 3.550476,-0.0774 6.281878,-0.0343 v 202.804841 h 3.136002 V -298.55922 c 1.127605,0.029 2.887608,0.0651 3.01329,0.0743 0.486999,0.0355 1.955005,0.12359 2.93101,0.0978 2.013992,-0.0532 4.241745,-0.23229 6.039743,-0.23179 1.797998,5e-4 3.1662,0.27981 4.748199,0.27881 3.220996,-0.004 6.441839,-0.15897 9.662836,-0.16597 2.916997,-0.006 5.833249,0.11721 8.750246,0.15421 1.703998,0.022 3.439645,0.1869 5.103643,-0.0771 1.795999,-0.286 3.511063,-0.26582 5.294061,-0.0108 0.940999,0.135 1.404285,0.54694 1.776285,1.31694 1.592998,3.30699 3.218732,6.59797 4.810729,9.90497 0.449,0.931 0.79595,1.90997 1.23795,2.84497 2.06299,4.36899 4.1464,8.72905 6.2184,13.09504 1.024,2.159 2.02683,4.32882 3.06783,6.47982 0.256,0.529 0.45519,1.08784 1.22619,1.22384 4.001,0.702 7.84863,1.95013 11.46263,3.78013 2.558,1.295 5.22032,2.60017 7.36232,4.44917 2.611,2.253 5.03362,4.77197 7.09761,7.62796 2.609,3.608 4.7741,7.40577 6.3021,11.57876 0.138,0.377 0.3289,0.73528 0.5689,1.26428 2.106,-1.493 4.07026,-2.90227 6.05526,-4.28227 0.649,-0.451 1.38212,-0.78071 2.02312,-1.24171 3.29199,-2.37199 7.13063,-3.62908 10.94262,-4.55308 3.132,-0.75899 6.44544,-1.37192 9.78743,-0.93892 1.204,0.156 2.47571,-0.14688 3.66071,0.0691 3.416,0.622 6.83091,1.28485 10.03991,2.71285 3.853,1.715 7.77808,3.29908 11.09308,5.99508 2.797,2.277 5.63213,4.51875 8.29512,6.94575 1.986,1.811 3.736,3.88331 5.563,5.86531 0.38,0.413 0.63476,0.94059 1.05176,1.57459 -0.657,0.143 -1.00783,0.24738 -1.36583,0.29338 -1.641,0.207 -3.30004,0.3148 -4.92404,0.6178 -2.031,0.379 -4.05604,0.83421 -6.04304,1.39921 -3.17699,0.902 -6.3559,1.8199 -9.46489,2.9249 -2.301,0.818 -4.5429,1.84599 -6.7229,2.95498 -3.21099,1.634 -6.48795,3.20509 -9.47194,5.19909 -3.849,2.573 -7.59094,5.29687 -11.05594,8.44887 -3.937,3.582 -7.35202,7.50092 -10.24302,11.93092 -1.031,1.58099 -2.12809,3.11701 -3.17409,4.68801 -0.425,0.64 -0.79222,1.31793 -1.18622,1.97893 0.08,0.116 0.16119,0.23333 0.24119,0.34933 3.417,-1.301 6.83617,-2.51419 10.47716,-3.05419 3.701,-0.55 7.42671,-1.05902 11.1227,-0.89002 3.624,0.16599 7.26423,0.72381 10.80722,1.77581 3.595,1.069 6.90709,2.73829 10.30508,4.25029 3.346,1.49 6.30665,3.46786 9.15365,6.04586 -1.685,0.725 -3.1051,1.27014 -4.4661,1.93614 -2.849,1.392 -5.71084,2.76683 -8.48084,4.30483 -2.081,1.156 -3.93573,2.73929 -6.05573,3.80129 -3.19799,1.601 -5.80642,4.01899 -8.75542,5.95699 -2.68499,1.764 -5.0336,4.04173 -7.50759,6.11873 -0.557,0.468 -0.99209,1.07818 -1.53509,1.56518 -1.764,1.582 -3.5951,3.0907 -5.3171,4.7167 -1.511,1.426 -2.94985,2.93615 -4.35185,4.47315 -2.302,2.524 -4.60624,5.05005 -6.80423,7.66605 -2.424,2.88499 -4.70686,5.88914 -7.09386,8.80713 -1.393,1.704 -2.16825,3.85381 -3.90425,5.31381 -0.28,0.235 -0.33897,0.73094 -0.55997,1.24594 0.512,0.035 0.86098,0.0961 1.20598,0.0771 2.69099,-0.141 5.37939,-0.31302 8.07038,-0.44102 0.854,-0.041 1.71387,0.0159 2.57087,0.0409 1.023,0.029 2.05095,0.0179 3.06595,0.12789 0.66199,0.072 1.29676,0.37308 1.95776,0.49508 3.241,0.598 6.40334,1.26714 9.37134,2.92913 2.038,1.142 4.07692,2.23792 5.83992,3.75192 0.932,0.8 2.03414,1.52104 2.66114,2.97004 -0.978,0.44 -1.83896,0.86225 -2.72696,1.21725 -0.968,0.388 -2.07408,0.5409 -2.92208,1.0969 -3.021,1.984 -6.45601,3.15766 -9.47101,5.21366 -3.642,2.482999 -7.46718,4.697157 -10.85517,7.546154 -2.385,2.005998 -4.78885,3.995001 -7.10185,6.082998 -4.411,3.981996 -8.7709,8.005882 -12.3409,12.821877 -1.931,2.602998 -4.18742,4.963174 -6.26542,7.459172 -0.934,1.121999 -1.8556,2.264993 -2.6696,3.474991 -1.671,2.485998 -3.23135,5.046931 -4.90335,7.533928 -1.33,1.977998 -2.76964,3.882216 -4.12664,5.843214 -0.201,0.291 -0.2104,0.712901 -0.3484,1.2229 0.642,-0.168 1.05722,-0.259065 1.46222,-0.385065 5.20699,-1.617999 10.51415,-2.080763 15.92215,-1.374763 6.02099,0.785999 11.37001,3.305916 16.468,6.438913 0.742,0.454999 1.31268,1.189074 2.12468,1.945073 -0.6,0.28 -0.90306,0.49402 -1.23606,0.56702 -3.496,0.763999 -6.74677,2.179006 -9.87677,3.853004 -2.57599,1.376999 -5.26808,2.536859 -7.62608,4.343857 -2.07499,1.589998 -4.41597,2.830748 -6.50896,4.400747 -2.192,1.643998 -4.31321,3.408017 -6.3162,5.279015 -3.623,3.383997 -7.002,7.005258 -10.007,10.964254 -1.514,1.994998 -3.161601,3.890151 -4.631599,5.915149 -1.364999,1.8789981 -2.576953,3.8698268 -3.845952,5.81782489 -0.056,0.0849999 -0.0071,0.23699367 -0.0071,0.46499344 0.234,0 0.469793,0.0398878 0.688792,-0.006112 1.375999,-0.28999971 2.736232,-0.76475334 4.12523,-0.86275323 1.996999,-0.1409998 3.913979,-0.877088 5.972979,-0.6210883 1.376,0.1709999 2.79364,-0.032895 4.18964,0.014105 1.938,0.064 3.91225,0.00568 5.80325,0.3596764 3.051,0.57199939 6.06989,1.23520083 8.88189,2.7861993 1.924,1.059999 3.82786,2.137869 5.65186,3.3508678 0.525,0.3479997 0.88334,0.9462432 1.31834,1.4302427 -0.564,0.4179996 -1.07706,1.082616 -1.70106,1.2116159 -2.34399,0.4819995 -4.23929,1.8604218 -6.28328,2.9324201 -2.065,1.081999 -4.02804,2.360945 -6.11403,3.396944 -3.54,1.758999 -6.73767,4.008641 -9.79167,6.482639 -1.89899,1.536998 -3.78135,3.096131 -5.62834,4.69413 -1.802999,1.560998 -3.652996,3.08727 -5.302994,4.802268 -3.612997,3.756996 -7.237865,7.51691 -10.615862,11.481906 -2.440997,2.864997 -4.50573,6.052977 -6.709728,9.116974 -0.927999,1.290999 -1.782241,2.6348 -2.67524,3.950799 -1.438999,2.123998 -2.963073,4.195085 -4.301072,6.381083 -1.529999,2.501997 -3.013834,5.04498 -4.304833,7.674977 -2.568998,5.227995 -5.04495,10.504253 -7.446948,15.810247 -0.876999,1.938998 -1.387238,4.042044 -2.155237,6.035042 -0.919999,2.386997 -1.990809,4.715901 -2.894808,7.108898 -0.690999,1.830998 -2.077384,7.197833 -2.451441,8.038413 -0.374059,0.84055 0.07097,0.70039 -5.592616,0.76919 -2.831795,0.0344 -4.086675,0.10705 -4.678144,0.0315 z"
       transform="matrix(0.77718962,0.77718962,0.77718962,-0.77718962,266.73098,49.965346)" />
  </g>
</svg>
